<mxfile host="app.diagrams.net" modified="2024-03-27T10:03:26.353Z" agent="Mozilla/5.0 (Macintosh; Intel Mac OS X 10_15_7) AppleWebKit/537.36 (KHTML, like Gecko) Chrome/122.0.0.0 Safari/537.36" etag="PKmtHidGkJ7jOxfwBbLv" version="24.0.6" type="github">
  <diagram name="第 1 页" id="jWW_2OR0iExz3gDBUJe-">
    <mxGraphModel dx="1672" dy="853" grid="0" gridSize="10" guides="1" tooltips="1" connect="1" arrows="1" fold="1" page="0" pageScale="1" pageWidth="827" pageHeight="1169" math="0" shadow="0">
      <root>
        <mxCell id="0" />
        <mxCell id="1" parent="0" />
        <mxCell id="oiUiUNXv8FLWz6BhB0Yb-13" value="Prompt 模板" style="rounded=0;whiteSpace=wrap;html=1;strokeColor=#7EA6E0;" parent="1" vertex="1">
          <mxGeometry x="399" y="324" width="159" height="34" as="geometry" />
        </mxCell>
        <mxCell id="oiUiUNXv8FLWz6BhB0Yb-14" value="" style="rounded=0;whiteSpace=wrap;html=1;strokeColor=#7EA6E0;" parent="1" vertex="1">
          <mxGeometry x="399" y="358" width="159" height="106" as="geometry" />
        </mxCell>
        <mxCell id="oiUiUNXv8FLWz6BhB0Yb-15" value="&lt;span style=&quot;text-wrap: nowrap;&quot;&gt;依据质量设计要求&lt;/span&gt;&lt;br style=&quot;padding: 0px; margin: 0px; text-wrap: nowrap;&quot;&gt;&lt;span style=&quot;text-wrap: nowrap;&quot;&gt;生成的问题&lt;/span&gt;" style="text;html=1;align=center;verticalAlign=middle;whiteSpace=wrap;rounded=1;strokeColor=#A9C4EB;" parent="1" vertex="1">
          <mxGeometry x="412" y="371" width="133" height="30" as="geometry" />
        </mxCell>
        <mxCell id="oiUiUNXv8FLWz6BhB0Yb-16" value="&lt;span style=&quot;font-size: 14px;&quot;&gt;Context 样例&lt;/span&gt;" style="text;html=1;align=center;verticalAlign=middle;whiteSpace=wrap;rounded=1;strokeColor=#A9C4EB;" parent="1" vertex="1">
          <mxGeometry x="412" y="414" width="133" height="30" as="geometry" />
        </mxCell>
        <mxCell id="oiUiUNXv8FLWz6BhB0Yb-17" style="edgeStyle=orthogonalEdgeStyle;rounded=0;orthogonalLoop=1;jettySize=auto;html=1;exitX=1;exitY=0.5;exitDx=0;exitDy=0;entryX=0.5;entryY=0;entryDx=0;entryDy=0;strokeColor=#FFB570;strokeWidth=2;" parent="1" source="oiUiUNXv8FLWz6BhB0Yb-19" target="oiUiUNXv8FLWz6BhB0Yb-27" edge="1">
          <mxGeometry relative="1" as="geometry" />
        </mxCell>
        <mxCell id="oiUiUNXv8FLWz6BhB0Yb-18" value="&lt;font style=&quot;font-size: 14px;&quot;&gt;Retriver &amp;amp; Rerank&lt;/font&gt;" style="edgeLabel;html=1;align=center;verticalAlign=middle;resizable=0;points=[];" parent="oiUiUNXv8FLWz6BhB0Yb-17" vertex="1" connectable="0">
          <mxGeometry x="-0.4498" y="3" relative="1" as="geometry">
            <mxPoint as="offset" />
          </mxGeometry>
        </mxCell>
        <mxCell id="oiUiUNXv8FLWz6BhB0Yb-19" value="技术协议与质量设计&#xa;样例库" style="shape=image;imageAspect=0;aspect=fixed;verticalLabelPosition=bottom;verticalAlign=top;image=data:image/png,iVBORw0KGgoAAAANSUhEUgAAAMgAAADICAYAAACtWK6eAAAAAXNSR0IArs4c6QAAIABJREFUeF7tfQt4XNV17v/vM5ItY2NrRsaPgLEsjWUT0iAaYl55QAgJTZwE0otzS8J1IYmtkU1SbrkhaVOHr72JculNW9samRAc36DmtiQ3JDEJbzCBgEVTQwkP2yNZRk6QHUsj29iWLM3Z63ofSVQ2esyZOfPUOd8334xm1lp7rX/vX/s89l6L8A8fAR+BMRGgj42HCKwTNX/+v089Zs+eUmIdm5rQZVMs1T/VTnCqJZhiK05VgimKmKo1ptLCFNGcSmXeMZXUU403IqqPCn2icYJK+sTGCaXQpwV9mjhhaemzzXtA+mxd2hdQvScG7DP6zrAOnnjjjT/uwx3UHkY1qU35BHHZ/TM37KwMBAKVoqVSIJWKqBSohQAqAZnn0lyGxNkJoJ3Qe7WYd7ZTsT2RSLQfXrukPUONFqVZnyCndWvFXa/O0wlWCksXKkqliFQODv63XsUwEAxJnBfJdi1sp/TvVQFp71p1niGXfwwhMKkJctY/7pkzMNV+L0SWUbAM4HsBnDnJR8cRQJ4XogVkS0mf9fwfvrzowGTFZFIRJLgpdh6FV4ngUsAQQsypkX9MiAD3Amgh8axQHouvDr86oUqRCBQ1QQwhYOMSKF4OkQ8DeEeR9Fuuw/g9yEeh5RlYeK6YCVN0BKlobL1CU38CoCHEO3M9kiZJ+68A8qgS9fOu+uoniynmoiDIrMbdFyillkPLJ0C8p5g6qOBiEfwGij/XWm89VL/4xYLz/zSHC5YgoaZd74CoT4ngkyDMbOEf+YaA4FESPwP1T7vran6fb+4l40/BESS0cde1WqlPEXItwBnJBOnL5BoBeVPA+5XWP+1eU3N/rr1x035BEKQi2vrHNuTTFLkW5BI3AfqyeYaAyE4h77fA/9cVqf73PPPube7kNUHKo3veR+qbILIy34H0/UsBAXKLiNrcE1n0dAraWVHJS4IEm2IfAXATBNdnBQW/kdwiQNwHYHO8Lvxwbh15e+t5RZDgptglIvgKzYV3wR5yFGAHgP2A9AI8LkAvRXpB9Ap4XIG9J+PsFWU+S69o9GpKrwV13IRtQ09TwjIqlGmwjFqmkeazlBEyDYIyIcsIlMH8DZYBmAvIAoDTCxU6IX52Ms5vx1eHn8uXGPKCIMH1sTMlgK8Q/AogVr6AM4ofenDw630kO6CxTyvVAdj7ZED2SWBqx+HIuT259H9m9PVyJvoWsITnANY5SusFUDhHxJBHnTNIIqhc+jh+27QF8m0m8O34LeEjufYz5wQpj+7+MwJfAfhHuQbj1Pa5SyAtILafnNFeIPW+Qr1VeTqu5ha5iDrn5H/sWgguJmiW3dTkF/7ykgDf7oks/mEu/copQYJNrf8IkS/lEoDBttmDITJAs8Xm8ZbDkT/K6UyQbUxmRl8qt2TaMihZZkiDQdKUZ9uPt7VH/lO8rvrLufIjJwSZtXHPuZayNwiwPDeB8yVCfg3hdjLR0hVZsis3fuR3qxXRnTUigWWgXCzgZYDkZJYnsNXW1tpDaxa9nm3Esk6QwbVSsiHL66TMxfKDgDyIBB6K3xL+XbaBLob2gutjZyOAjwK85uSMew2cmwRZO15RwrXZXuuVVYKEGnevFKooIFkAli8B+hGIejz+h74ncMf5/VnrysnQ0LqXS4NnTb0S1B8C1NXZmV3YS9GR7vrFW7IFcdYIEorGvirANzMc2EMQPq5EnuhaE96R4bZ88yMQqNgYu1CTV4LyIcDMMpk7CHytOxL+VuZa+E/LWSFIsHHXN0C1LkMB9QFo1kDzoUj4qQy14Zt1gcCsaOwDCvgsBl9OIgrPD9F3xOtrvuG53dMMZpwgmSOHmF1uzSpg3dv1xardmQZqPPszNv4uVILeuYSeq1VgjnkHZK6AcwnMATgNkFIA5lUy9H7aZw5/b5rqB2Rg8N15jfKZRsY8hDxAyH6A+wVqv9KJA+Z9AGX731xzdncucan4bttinbA/N0gUer97MwskyShBgo17rgZtb5cPEM+JRjNtNGfrQdL8u96Y1o9jS+wElpKyxFkwqWE63CECyEAuB+KYbYskDHGcp/oKe2EWCgp3WgG8Voozdr6xar7z5D7Th/Mg2MJnqfBZCC7xtD2FSzP55D1jBDHLRqDxrHdg8DES0e666swtl75PrFkHWt9HS5aQaglELwWc1cPm6XMxHh2A7ATVayJ6p9jceWhO9dO4nnamgg01tV4rggggV3nVhmai8lDdUnNG4fmREYKUN716PqXkJwDCaXtMHoCwIR6p+se0bZ1mYPDh2PSLgIFLheoDBD7odRuFaE+AbRT9FFDyrM2j/5aJh6bBaNuXQbkdInM8wOiReMWJ5bje+zuVGSFIMLp7M8A/TztwYrNF1XBwdVUsbVsmn8/39gUDJ/rMnZb3CniRT4jkUHUIA/k3CJ9PTJn6xJHPnxNPTnN8qdmb2sK26NshuCldeyJo6KkPfzVdO6fre06QWRtiH1QW0ty4z3+jYkP36iozC6V1GFJYA33XKI1rhObhFoNpGZz0yhKn8EGt8KBdMvVBL8gS2tR2nWi5HZCLUoVXgBNa49LDHt/e95wgwabYjyD401QDBfGN4AAaWm8Jn0jVhk+KVJFzq+cdWarXx6bELf3VdB4HCNDcEwmbu2aeHZ4SpDzaeg0hv0zVO4Fs6IksviVV/ZnRXYsUrZvobLbKlzy5qUZTYHpkpwCbtdibD0dq9qTqfXl093qCa1PVF/BPeiLVD6aqn9FTrFB0d5OAq1NxjoKG7hTPIcubWs8nxOxANOeyM1Np39fxDIHDIDYLuLmnrvrlVKyGGmPfEuL2VHQJ2dQdWVyXiu5oOp7OIMFozCwCdJ+9MMUHPhX3HJyh+w7fCYohhnnQ5h/5g8AAhJvV1Jm3dd08+023bqXxgPn38Uj4bLftjSXvGUFC0V1XCdSjbh0T4N6eSPhGt3qhu9qXiD1wN8DL3er68tlEQJ6hVfKF7lWVO922Wh6N/YCA62sKQn+4O1LzmNv2MjqDBKOtfwvIX7t2SnhZvL7a1QPF0Ma2D4nSm4v4AZ5rGPNcoYNa3dS9pupxN34GG1svBeXXbnQGZfl38Uj1193rvV3DsxmkPNq6nhB3F1ci98frF1/nJhCTI0tDfuNGx5fNDwQU+B63ubCCjbt/AvJaNxEIuKEnUp3yzZ6RbXlIkNj/IeDqVEkE9T314aib4IPR3XcB/KIbHV82XxCQ78Yji1e58aa8MRYh0ehGR4Af9ETC/82NTsavQcqbYj91na5H49L4GncpXkJNsVYRVHkRvG8juwiQaOuuC1e7aTW4MXYJlLs1fSZ9UE9d+FNu2sk8QaKxJ90u3YhHwq5nsGA0ZlLB+Dl5vej97Nt4Mx4Ju67gFYzGxI2rZmlMTyR8hRudvCQIUphBgtHWpwHx71x50ftZt8Fn4pHq97lpNpWlS8VDEOLWeF34H9wAVh5t/SIhd7nR8WXzAwEBV/VEqr/rxptUnocUD0GAZ+OR8GVuADOywabW7/sJrd2ilmN5cku8rtrVCu/ZjS9P12rKi26vOYuJICB5XSqboFL5z5LjITJ5m09xpUR5tG01oZvcAldUBAHwSqJ06vtTWTbtn265HTrZl0/ltMp4Ofi8Sz8EsMKt18VGEBP/K/FI+Hy3QBj5WU2xWrN6l8KbBjOd+0fuEeBxoWw2q3sP1YVfcOuPyQHQZx815HB1QT/cTjESBCB/Ga+r/phbMIflK6J7aoT6JhFn4aLr/zqptuvrnYJAF8nNFLW5K7Io5XSuwWjM1Av5L6liW5wEMWiQd8frqtN6Sh5sbD3nZDmCm0FlkpctSxVkX88VAi0Qczpk3ROvr97nSvM04XTJYcwVL0FMcKaIiqAhHglvTwdooxvauHuZs83WJ0u6UI6m75DCbL/tXrO4Jd0GgtHYxWYPiOvVGKM0XNQEGYrX5HNqKJk+veHAjXOPpQv+KWRR6mrPczN54WAh2CCeg9aPeEUKE/KcH+w/Y+DoUbMf3WyQ8iS/2GQgiDNcCLwgREO8LmzOST07KjZ0zNfWicscoihc7BNmDGgdQmA7iOeUPeXXXWsXvOFZJzjPs2LXU3C7ALVe2p00BBkGzazOVCIN3fWLX/MSyGFbzn+xY29eDuHlArmcgqWgSRk6iQ7BASFeI/gMKM+UnDHjGa9m79NRDDXuXqrJ292u/k62NyYdQYaA6Rbgu0pK7u2uX5gRoozsACepnCpbAq2WAPZSgksEMFkW00+Gl2xPZ0YuRmCnmIyKsF6D0jtt3bszE8nh3k6MvUs1Bz5HwNyICWUmvCK/SE8CNJPIuZlkc3dd9RNJyHsrcp9Y5d2vLYUdWEhyDsG5GjKXzozDwVy9Ts7erK84Nvu+nSTWgOwXwQHlJLQ2n+UArMTentDS1zKZVnQsoENNrVeKyHC294znDpisM8ho+D8kguae+vA/e8uC9K2Zh13H7DfnWmLNJe1pWqNUBVSJaJSKoFQplmjzLnapKFVivqM4GeAhZD+Jfmo9oGn1K6JfaxlwvlPo1wk9oBT6RazjNu39Z1gz9mcrEbUbZMobYzeQTgmEjNYLOd0nnyBv76UXQTYHAqr5D19YdMBNJ/qy3iJw1t175iQS+rMYnDEu8NZ6ctZ8goyN0yEBTR7Zp8ROPN6zdulvk4PUl0oHgfINr72LVuBDAn6AEJMAfFY69tLV9QmSPIIvAtgGwYPx+vAjyav5khMhEGyMXQ3CFPI0hMjJTDGWjz5BJuq90X8/BOBxijzQL/bWN9cszWn1pdRCyJ3WjI2vhUppLRfy4wBMHcKczhLjIeETxItxQrwKQYuItIgl2w+trvkPL8wWgw3nOqJf15JSO/gQjxcAUjC3t4uGICZpQygai56ss+dZLtU0BmifANsV0AJwO63+lq5V53WmYa8gVE3Cb4usFY1aUhkimKfa8/PB+ZP1HZu6I+HIpE3aMJzVpDy6548I/U1AUl7unqEO7YBguyi8AI19oNUhPLHv0P4lHbiDOkNtem521vfbZwV67SpNqaKg6mS6V+fFwSUeeZjsm78QqK/1RBa9ZMCY9AQZHhGhptjnRJys3ud5Pkq8N/h7wJAGHYY8VOw4ucx+H8XqsIh9B+qq/+B9k2NbNOvLbCtRpairnD3cRBVETP4w88rYU2uPY3yVREN3XfjekXZ9goxAw7kYVFYdwJXmv5zHHZBNc2aGOU6gV4BeQHoJmrLNvRDpJc2uu6HPjoyzC6/XOEhhGSHTBCgDWUZBmYhMcz4DZeLsnBz+jDIAZielymZwXrZ1MkF1GyBb+rXdNNrNE58go6Bdcc/OGXIisFJTVlJwoZcd4tvKDwSE2KGEWzglsaXr5iVjlkjwCTJBf4UaW290iAJ4ki0vP4bH5PVCgCcNMbrrq3+QDAo+QZJByZxIb4p9UkRWQLAc4PQk1XyxvEBAjoLYSvJfu1eHf+bGJZ8gbtAyGRk27JxvB9RyDhIl3+58uYym2MXlF0JstRJ6a9faJSltuPIJksYYCd21a4m2uZxwyJJSmpg0mvdVR0VAnhZgq7Jka/eqGteVpU436RPEo2EWatr1Xoi6SgNX+dcrHoGapBnnugJ4DNSPddfVPJ+kWlJiPkGSgsmdUKhp1ztE1DUgPwzRVwEMurPgS4+PgMRB9RhEHiX1g911Nea5UEYOnyAZgfVUoyaNvqXkGlHqSoiznMLKQrPF1IQN8gVq/YSt+eChteFt2QrOJ0i2kB7RjtnDoAKBC0RgXrWks2S7PAeu5GOTPSJ4kcQLJF7UicSLudxb4xMkT4bIrI17zrUC9gVi61rQWgiRShCVAM7JExe9dmMfBO0g2yH2XlrqBTthvXhozaLXvW4oHXs+QdJBLxu694k1+2BbpS26EpZaKCKVhFQCagEg8wCY19RsuOKijT4AnQA7Ad0hYDsNEWy916JqPzi7qj1bCRwq7jk4QxJH34GEnhFQ8rrbdWo+QVz0er6Kzoy+Xm6p/nlM6HlaqXmGOIQ1F5R5IuYzSkGWQlAK6CnOO+kkcCDNd2+9TIj95iUCJ3kDRPph3qFOOO8i/QLzGzsh7BTYJptJp9K6UwKq09alnYcj5/bkA1ahxti3TErRU32Rfymh+lKyRPEJkg896fvgOQLljbFv8W3keKuZh0/mX04q24lPEM+7xjeYawRmboxdqBSeJTBlTF8En4/Xh++ZyFefIBMh5P9ecAiEGnevFPL7Ezj+YDwS/pOJgvMJMhFC/u8Fh0CyNSSHd5WOF+CkJQgU3hlfHX614Hrfd3hCBMqju/+M4EQZL38Uj4SvH5ccm2LnQeOVCRscIVA0SRuQ5DmoG3B82fxAYLAIp/xmPG+SKfAZbIzdDOJ7bqIqIoLI/fH6xde5Cd6XLRwEgo2tfwnKnWN4/Eg8Ev7IRNEEG3f/BOS1E8mN/L14CGKiEl4Wr69+1g0AvmzhIFDe2HY5qQ1JLna6G2gl1DfjkaqJLuARbGy9FJRfu422qAhCoLk7Ev6cWxB8+cJCYPr62OyAJe84VL/YpINN6ghFY/eeJJRJgu3qKCqCmMgJ/FV3JPxNVyj4wkWNQCga+5oA/zOVIIuOIEMgXB+PhH+UCiC+TnEhEIzGTI30lOtSFitBTC/7JCmuse46mnTJMXSds60nEvYkAw5dRzCGQnk09iQHU+Gne/gkSRfBAtX3ghyTgSDmVsfdNnXD4UjNngLta99tFwg4CbRF3Q7iCy7UxhQt5lOsEUHLGwQauiOLN3gBmm8jPxEIRXevFZjl8PQso/wkIchbHfqwttGQzT3Q+TmUissrkyNAWc4+kQkfFrqNfLIRZAgf+XuIWh+vr97nFjBfPn8QMNualUqsAfiXmfJqkhLEgbNHIM2K0ux17qVMdZZvdxCBULTtKoGsAPRnMp02djIT5D/Hm8iPFXlvVyT8c38Q5icCppRFgIEVBFaAeH+2vPQJcgrSfEaom0uP9jYfuO3dx7LVCX47YyMQjMbMuqsVAFcMJbXIKlw+QUaB2xRhEdHNWqtt/gV9Vsej09hgGT37Kgg+DCKpveaZ8tInyITIci+IbdT6Kb/k84RgpSwQatx1kShrOSCGGJekbMhjRZ8gLgE1gCngEW0nHshlhkCXbueleHlT62XU8umhWWJpPjrpEyStXuFeEXmACk+LUtt7VlV1pGWuyJWDm2LniY1aEJcQvC4X1xRuIS4agpC4UcDbIPIutyB4J28Sr0kLgO1io2XW9MD2vX9eabISTq5j3ZOB0FnzazVRq8BaAS8wZaJlvLQ9mUaI/C0hd4ogqVJtw+4UDUFMRouz7t4zJzFg/w8At2Yabxf2/wPkdohuQYIt8VuKK7FEsLH1HK2lSinUCnkBidrc/pMatWe+Eyix/tcfvrDowKTNajIy5UuwMXa1WZND5l+hTgFOEDCnYvtAOnXRTU10KNUBYp9lz+w4WH/WURcEzKzouicDFXPmVdmaVUqxSogqCquGymqb0tom1WleHiIwq8Ib4vXhR4Yd9Akyoqucjf5KvgTB2XnZg2M71QOig2LII/uEqhMavaT0CpRTA13Z0mtqo5u/LUqvVtKrJXC8NCC9iV67Nz7lsFMnPXhiZlmgzCrrT7BMMTFNaZbZTu10Pc3UTNeWqZ0++LcIy6BQBi3ngE5defM6t8CwM9tKfwfNf4rXV//96b77BDkNkRl37aooSVgrQVkJ4J0F19m+w24QeAXCLQMBe8ubq2q6RlP0CTIWnOteLi2fU7KSolaauyhuUPdl8xwBwXNCvaXnwMAW3HG+yWY/5uETJIm+DDa2rhiaUXL6lDYJV32R8RF4yMwY8frqf00WKJ8gySJlzs8bX7tUGPj4YNlnnO9C1RfNHQIvm7LQlMQD8fqlrnOg+QRJseOCjTs/Kiz5OKmXQ7AgRTO+WiYQIDpE1FbKwAPx+iUPpdOET5B00ANw9neeLTteGlwulvVxCj4EwLPtm2m6NtnU3xDicdr2A9P641t/d+ulzl25dA+fIOkiOFJ/najQ3LYPirbfD6r3ATCvEi+b8G29hcAAgKch+mkq61fd+6u24Q5qr/HxCeI1oiPsnf2dfWXHpvZeSeEVJK4UwNRI948UESDwggieEMqTZ/SVPfG7W8/xZJYYzx2fICl2VipqwfWxM1Eqy6jVMkCWAVgmwOxUbBW7DoGDAFoAtojSLeh3lt0cyXbcPkGyjfhp7c2Mvr5I4cTFFCwD6ZAmxy7lqvkWiLQI0aIxZfvhyLl5kZfMJ0iuhsM47c7csLOyRAUWaiWVcOqic6EAlRh8FepNgDcAtBNoF8hekO1Ks31AJ/YeXrukPZPdYPanlwQCc1KpKOYTJJM9kwnb62NTKgLWQi32uaSep0XNI2QelJoLwTxxaqRjHoAzMtH8KDaPCdBJsBNEJ7Tef7J6U6ei7hRRnYrW610Jey9uCZ/Ikj9vNRNqin1ONOpGrIR4BaJ/HK+v+UayvvgESRapApMz1zsqYM9L2NY8pVAqSkqVRqlWynkXSqkISknzmaVKBlfZaqKfIv0i6Kfzmf1aoV9p7bxTs19r9Acsu1MnrM5cXBck0xUT5NqdsD7hcBs+QZJB25cpKATKN7S9i5Z+aTynBXJDT2TxDycKzCfIRAj5vxccAn6d9NO6LJXyB8nUyC64keE77CDg10n3gCBIYGa+nj/74zw9BDyrk26eWwVw2I03RbMn3aSOideFH3YTvC9bGAjM3Bi7UCk8y/GSPgg+H68P3zNeRMGm2EcgcLXYsXgIIvoON7f7CmNo+F4OI1DeGPsW6ZQ4GO14OB4JT7i3J9lTtZENFA1BSLQpfeKCg/Xn50/CA398e4pAKBr7qgCnVjAm7x5Q9tfG2mI77MDsxpenazXlRRFnn33SR9EQxEQsUHU9kapNSUfvCxYcAoPr33A2NM60JLD3YH3l/mSCKI+2rSZ0UzKyRTmDDAYlXQrqo12R6n93C4QvX7wIVERb/1gDvwJkmtsoi2oGGSLJ01Ot6R99Y9X8427B8OWLE4FgNGbykJ2TSnRFSBAHhqSXHqQCmq9TOAik8kytiE+xTuk4nySFM44993R2Y2t1gnI3gQ+mY7xYZ5DBKxLiZxQ0nLwFuD0dkHzdwkIg2BS7CYK/8SIrZFETZKhbEwAbSqZPbzhw41y/rFphjXVX3lZEd9YIra+L4AZXiuMITwaCOOE7+5+Jhnhd+D6vwPPt5A8C5U2xOg7OGnO99GrSEGQYNAF+oEQauusXv+YlkL6t3CAwVM/QEOPTmfBg0hFkCMRuAb6rpOTe7vqFPlEyMbIybLNiY+xCIVcI8QVAyjPV3GQlyDCeJhdTM8nm7rrqJzIFsm/XOwScvMpOrXS51jurY1ua7AQZicxDImjuqQ//czaA99tIHoHZm9rCWssKceqlS1ZzKPsEeXs/vQiyORBQzaZkV/Ld6Et6isC6dap8zg3XAFxBhxi5qWTlE2TsXj0k4DZCnhI78bhf8tnT4T+qsYXfb596uM/+FEWuAvBhIPdJxH2CJN/vLwLYBsGDI2veJa/uS46GgLM6NyCfBvgxCD4M4sx8QsonSGq9cehkIuvHKfJAv9hb31yztDs1M5NTa/r62OySgHya5HUOKfL4KB6CCB4FcwZ2DMAOEdmhKDsGSgd2HPn8+fE87vesueaU5u7XtaSYOum1AC8AJJw1B0Y2lMIYKRqCmKwm5dHW2xTktvxIIM29hjQkdmjBjoD0vXCw/vykNvfkZPB40OjM6K5FFlkrGrWkMkQw2e9znlrVJM7W4J09keo7J31eLPNkVcH+igB/5kGfe2xC3oDwJSHaCOwh9B5tBdpKjxzdc+C2dxfEOrFZ32+fFei1qzSligKnXrp5cbAUxEyPAUvbHIEfaljf7okschLPTXqCDCPq5HEVZ5P/eWmjnA0DggMg2wjZI4Y8im3a5h5LD+zpWrvEJIrO2lGxoWO+bSWqFHWVs4fb1EwXGa6bHsqaI+k19CqJhu668L0jzfgEGYGGyQJeqqw6gCvNf7n08M6ptqm0dJxArwC9gPQSPO58FukleVw49NmRMX+LU4yGwjJCpglQBrKMgjIRmeZ8BsrE2YY6/BllAMy2VJXTaNNonEAbIFv6td002s0TnyCjgFtxz84ZciKwUlNWUnBhGvj7qnmKgBA7lHALpyS2dN285M2x3PQJMkEHhhpbb3SIAlyRp33tu+UCAQGeNMTorq/+QTJqPkGSQQlAaFPskyKyAmJqpHN6kmq+WF4gIEdBbCX5r92rwz9z45JPEDdoAajYsHO+HVDLOUiUj7lU98WzioD8QoitVkJvTfXGhU+QNDosdNeuJdrmcsIhiyn57B85R0CeFmCrsmRr96qanem64xMkXQSH9ENNu96rxfqAgrxPgPfn4z1+j0LNNzOHCfxKg08r2k9119U876WDPkG8RHPY1l1SEtStV1LLlUIaslyciWYmsc3tFPmVKD4RV9VPYBXNRraMHD5BMgLrqUYrvr1zBmZYV2jgA06pZxFDGCsLTRdDEzbI7aZEtAKewpv2k11fGfu2rNcB+wTxGtEk7VVs2PkesaxlGljGwdroi5NULXax3QIYMrTQtlu61i75TS4D9gmSS/RHtD0z+nq5pQaWwbYvBq2Fpj466NRFTylHbJ6ENZ4b+yBoN/XSIfZeWNZ2W5e0HI6c25NPvvsEyafeGM2X+8SafbCt0hZdCUstFJFKQioBtQCmPvpgTfSpeRZGH4BOmNrp0B0CttMQwdZ7Lar2g7Or2nE97Uz7XHHPwRn2iUNfVYIFYjKZKO4i9L+4uZD3CZLpXsqC/cHZp38eE3qeVmqeIQ5hzQVlnoj5jFKQpXBqoespzjv5Vp30of3bTp10AP3mNVwnHSL9oPlOnXDeTQ11mBrq7ISwU2DvN0RQWndKQHXaurQzH2aB0F3tS8RObMHg6euIQ+LU8vnuNTX3J9M1PkGSQcmXKTgEyqOt9xPyqdHeqjElAAAIa0lEQVQd517NgSsO1S01e3DGPXyCTISQ/3vBIVARjX1CA+MuKRHIhp7I4lsmCs4nyEQI+b8XHALBaOzLJx/U/sN4jgvQ2hMJT7iV1ydIwXW/7/BECJQ3xiIkGieQeyUeCU+YVK4oCBKKxrYK8PGJgDvld4V3xleHX3Wl4wsXBALl0d0fI/jAuM4K/iFeH751PJngpth50HjFTdAEHuiOhJe70RlLll4YMTZC0di9J6fMz7qyl0QheVf2fOG8QsCLi/RgY+xmEN9zExiB5u5I+HNudDJOkPKm1g0UWePKKZH74/WLr3Ol4wsXDAIV0T01GvY9AC47zekuBdzcFQn/fKJggo27fwLSVdJrITf21FWvnch2Mr97NoMEo61/C8hfJ9PoKTLCy+L11c+61vMVCgIBswZOZlh/dbLGyyIAM4RotYRbkin7HWxsvRSUX7sPlH8Xj1R/3b3e2zU8I0h5U+tlJ/OzPuPWKS+nQ7dt+/L5jUAwuvv/AvyMWy+1jSsOrQ1vc6s3mrxnBDHGg9HW9pPZKRa6dYzAX3VHwt90q+fLFy8C5U2xDRS4O2U3RWAFB3vqw2d5hYzHBIn9bwDj3pUYx/Hr45Hwj7wKzLdTuAjM2hD7oLLwZEoRCO6O14e/mJLuKEreEmRT60eh5cE0nPNJkgZ4xaAabNy1AlT/kmosQv7XnrrqlPVPb9dTgjinWU2xH0Hwp6kGCMAnSRrgFazqOlHBua1fh+AbqcbgZdLqYR88J0ha0+OwV4K7beqGw5GaPamC5esVDgKhaNtVAvkbQNJKuqGBTx5K4taxG2Q8J8jgxfruzQD/3I0jb5eVNwg0dEcWb0jPjq+drwic/Z19Zb1T+v5G6ORjTusQoLnHo4eDIx3JCEFmbdr1bqXVYyaFVVpRDyo/rG00eHXbzgN/fBMeIFDetPvjFJpnFe/1wFyXVvqqQ6tr/sMDW6eYyAhBnFmkcdcXQPVd7xyWv4eo9fH66n3e2fQtZRuBWRv3nKss+0sQ/IVnbYv+Yry+5m7P7I0wlDGCmDZSvZc9TqA9AmlWlGY3WzYzAZxv0x0CQ9cZKwD9GS/Txgqxsacu7MmyktEiyihBnJmkKfZIRmraifxYkfcms57HXVf60l4hYEpZBBgYLAlNJ5GftwfxaLwufLW3Rk+1lnGCDJ5uxe4BcVNmAuEzQt1cerS3uVAqPmUGh/yxGozGTM6xFaZe+lBSC++dE2yO14dv9t5wDggydE3yDVCty1RApgiLiG7WWm3zL+gzhfLYdk0ZPcK+aqgs9Ecz6oHoO+L1NSk/L3HjW1ZmkGGHgo27MkqS/wyce0Fso9ZP+SWf3QwHd7Khxl0XibKWA2KIcYk77RSls0gO42FWCWIaLI+2rSb0nQCyVt/DPGFVwCPaTjzQs3bpb1PsGl/NufHSehm1fBqEmSWWZhGUowJ1W0+kalMW28w+QQZPt5x1/oYkl2Yz2MG2uFdEHgDlOWWV7OheVZl2ev7sx5C9Fs2WV7FRC+ISgtdl7Jpi/JCehfC2XOwbyvoMMozD7MaXp2uW3ing6ux192gt8bipjS7QLyjBDk29oyeyxCk/PKmOdU8GQmfNr9VErQJrBbzAlIkWYEoucSBkk5L+2w7Wn380F37kjCBvXZc0xa6HOEvkT8u+lws4htuUBMAdBHeYQpMQ+S2p93XX1fw+l1550va6JwMz58xfQFstUAq1Ql5AohYi7/LEvmdGuJei7+iuX2wyM+bsyDlBnMjvu88q77rwVor8dxBzcobGxA1rgB2A3keyAxr7tFIdgL1PBmSfBKZ25Drlp3n2YFmBBZaNBVCyQIAFEC4AYfIILwA4f+IwcyxBbtEYuCOZrIuZ9jQ/CDIU5czorkUK6lYCdYVb91uOOiQS6Ty5eewIiCMy9A6oIxAeeet70W86vw/giA0cOWrkBu9enGkBZ7IEZ0JwJqlmmHcAZ4JyJqAHvzd/v/U950NkAcgzMj1oMmc/P2aNkfHlFUGGHZu1fte7lcWbBh8u+tVsMzcg88byHopsZn9ic9dfnGf+seTNkZcEGUZn9qa2sLb1TTL4FN6zfcZ5g77vyMsQbJaA2tyzqupwPsKR1wQZBizUtOsdEHWjADcAeGc+Aun75AIByuMC/KhHHdmMVe/JWG1DFx6NKVoQBHnL+3WiQnNbbxBxiPIRLwDwbWQJAZGdQt6vqH9aSCuxC4sgI/oy1NR6pWi5AcQnPNqYlaWRMqma6RLgl0rrnyZbLCff0ClYggwDWX5X20wO6I9AwSx7Nq9irSeYb2NnLH/MhrZHoPGIlKiH8/XaIlkwC54gpwS6Pjal3MLVhiwUfCjLa4WSxbwY5V4T4nFDih4bj+CW8IliCbK4CHJar8xq3H2BpdT7Rcv7QF4OyNxi6bjcxsH9EHmGik/bWv/qUP3iF3PrT+ZaL2qCnA6bIYwiPwjIMoIXCVCVOWiLyTJNHcEWQLZrkW3FTIjTe21SEeT04M/8zsvBwJQp7zFk0ZCLCLkILIClGJnl3hFAnheiBWRLSZ/1/B++vOhAZpvMX+uTmiCjdcus77fPQl+i0tKqUpRUOjXRRSpBVgIwr3yrh57K6GoH4LxM7XQtbKf071UBae9alV9PslMJzksdnyAu0ay469V5OsFKYelCxUECDRFn+N2lxUyI0yzXaCf0Xi3mne1UbE8kEu2H1y4xxPCPJBHwCZIkUMmKmX0uLJ12xolee7oKWGdQ9HRAplOZRYQyXYs6gyLTAXu6WVhIYLoGB78zCw1FCKijQjmmwKMicgwKR0V4DDL0ndLHYH7T+pgodayE6qgMDBzTYh2Nz33hGK6/3k7WX19ufAR8gvgjxEdgHAR8gvjDw0fAJ4g/BnwEUkPg/wPMOIXXvrcuegAAAABJRU5ErkJggg==;" parent="1" vertex="1">
          <mxGeometry x="14" y="418" width="76" height="76" as="geometry" />
        </mxCell>
        <mxCell id="oiUiUNXv8FLWz6BhB0Yb-21" style="edgeStyle=orthogonalEdgeStyle;rounded=0;orthogonalLoop=1;jettySize=auto;html=1;exitX=1;exitY=0.5;exitDx=0;exitDy=0;entryX=0;entryY=0.5;entryDx=0;entryDy=0;strokeColor=#000000;strokeWidth=1;dashed=1;" parent="1" source="oiUiUNXv8FLWz6BhB0Yb-67" target="oiUiUNXv8FLWz6BhB0Yb-15" edge="1">
          <mxGeometry relative="1" as="geometry">
            <Array as="points">
              <mxPoint x="-264" y="386" />
            </Array>
          </mxGeometry>
        </mxCell>
        <mxCell id="oiUiUNXv8FLWz6BhB0Yb-23" style="edgeStyle=orthogonalEdgeStyle;rounded=0;orthogonalLoop=1;jettySize=auto;html=1;exitX=0.5;exitY=0;exitDx=0;exitDy=0;entryX=0;entryY=0.5;entryDx=0;entryDy=0;strokeColor=#FFB570;strokeWidth=2;" parent="1" source="oiUiUNXv8FLWz6BhB0Yb-25" target="oiUiUNXv8FLWz6BhB0Yb-19" edge="1">
          <mxGeometry relative="1" as="geometry" />
        </mxCell>
        <mxCell id="oiUiUNXv8FLWz6BhB0Yb-24" value="&lt;font style=&quot;font-size: 14px;&quot;&gt;Text Embedding Inference&lt;/font&gt;" style="edgeLabel;html=1;align=center;verticalAlign=middle;resizable=0;points=[];" parent="oiUiUNXv8FLWz6BhB0Yb-23" vertex="1" connectable="0">
          <mxGeometry x="-0.2926" relative="1" as="geometry">
            <mxPoint as="offset" />
          </mxGeometry>
        </mxCell>
        <mxCell id="oiUiUNXv8FLWz6BhB0Yb-25" value="问题对应的词向量" style="shape=image;imageAspect=0;aspect=fixed;verticalLabelPosition=bottom;verticalAlign=top;image=data:image/png,iVBORw0KGgoAAAANSUhEUgAAAMgAAADICAYAAACtWK6eAAAAAXNSR0IArs4c6QAAE4lJREFUeF7tnX+UXGV5x7/Pnd3ktCHJ7t2lAhL5sXN3MaRAm9QY8GByTj1wQlIotFiqFVHIZu4kOaLYlliOoQeExlZLyNzJBq0eWtAjRVRQWiqCBwSkQasGyO6dhLTkhB/J3EkAe4jZuU/3bhYaYH+89/edvc/8u8/zvM/7+d7vztxf70uQjxAQAhMSIGEjBITAxATEIHJ0CIFJCIhB5PAQAmIQOQaEQDAC8g0SjJtk5YSAGCQnQss0gxEQgwTjJlk5ISAGyYnQMs1gBMQgwbhJVk4IiEFyIrRMMxgBMUgwbpKVEwJikJwILdMMRkAMEoybZOWEgBgkJ0LLNIMREIME4yZZOSEgBsmJ0DLNYATEIMG4SVZOCIhBciK0TDMYATFIMG6SlRMCYpCcCC3TDEZADBKMm2TlhIAYJCdCyzSDERCDBOMmWTkhIAbJidAyzWAExCDBuElWTgiIQXIitEwzGAExSDBukpUTAmKQnAgt0wxGQAwSjJtk5YSAGCQnQss0gxEQgwTjJlk5ISAGyYnQMs1gBMQgwbhJVk4IiEFyIrRMMxgBMUgwbpKVEwJikJwILdMMRkAMEoybZOWEgBgkJ0LLNIMREIME4yZZOSEgBsmJ0DLNYATEIMG4SVZOCIhBciK0TDMYATFIMG6SlRMCYpCcCC3TDEZADBKMm2TlhIAYJCdCyzSDERCDBOMmWTkhIAbJidAyzWAEsmOQb22foddnLoOLEwF3HlNhL4j2NttnPPbKlfOcYNOTLCEQjkDqBums7lxB7H6UgIsYmDnedIhxh6tp32yUeu4LN13JFgL+CKRmEH2LPZ9c3MzAStWWCbjXLWgbG/09j6rmSJwQCEMgFYN45oCLJwHM8ts8AYeaTZx/YK3xsN9ciRcCfgkkbpCOW+2lWgEP+W30HfEaTndWG8+EriMFhMAkBBI1SMeWwTM1V/shgO7wqtBuaHyBmCQ8SakwMYFEDaJbQwMArYpOEN7qmL390dWTSkLgrQQSM0i3VVvogrdFLYAGWrTfLD4VdV2pJwQ8AokZpMuy1zNwY9TYRy4N39QwjfVR15V6QiBRg+iW/XMAZ0WOnXmHU+59b+R1paAQSOobRN9kz0EbDsZGfBhznXXGK7HVl8K5JZDIT6yx+x5Px0ZZLvnGhjbvhZMyyBK4eCw22EznOOVifPVja1wKZ51AIgbpqD57ssZtz8UFozmM4sF1xs646kvd/BJIxCDwntTdP/NQXJgLfGj2vvKC1+KqL3XzSyAZgwDQrdrdAF8cNeqRhx2fapjGoqjrSj0hkOhl3s6q/RFi/EvU2BnU3zCLW6OuK/WEQKIG8QbrtOxtI4+sL4wSvWMaiX0LRtm31GoNAokeXJ1WbRWBByJFQ/iVUzLOiLSmFBMCYwQSNYg3pm7Z3wTw4SgVIODOuml8JMqaUksIJP4T6w3kemXo+yBaHqUETLi2UTJujrKm1BICiX+D/L9JBjeAtM9HKQFDW9Ewe74fZU2plW8CqRlk9KS9unOFxu4qP++lTyUXF7STGv09/zNVnPxdCKgQSNUgb36bbLGXsIuVRFgKF/NAOJGBGgE2wE8DdI3KZI7E0EHHLHaox0ukEJiYQCYMMpVAetW+GowvTRV31N9/4pjGB3zES6gQGJdASxhk9OdYxb6VCGtUdSTwlrrZW1KNlzghMB6BljGI17zfq1/MKDfKhiXSC4GgBFrKIO+q1n7nMLO3HpbyG4QM99yG2fdIUECSl28CLWWQ0W8Ry34/AQ9PtEzpeHJqM2e+e/8n37M3T1J7rxgU0L7CdbmPCMcDmO2tdczMLwDu/fJPQ+1oaDmDjJ6PbNl5GbnunWpTHI163jGN9/iIb9nQrs1Di90CXUuMCyefBA2CcJtTKv5Dy042gcZb0iAel65K7XNMfIMyI+YfOOXeC5TjWzBQr4zefL0WwAzl9okeZI02yHrH4xNrWYMcOWm3vwrCJ1QPBgL+rm4af60a30pxulXbCPBng/Qs6x1PTK2lDTL6c8uyHxo5J1mqemAw4aONknGHanwrxPllMOGcZPGLd6BpeYN0D+w+3m0OPw7wST4O5iWOaTzhIz6zobple+cQn46mQVnv+O0cW94g3oS6B2rL3Cb/yM9B0tZeOO7lq059yU9O1mJjWs71Lsc0Ls3aXNPqZ1oYZOx85JMjz3B9RR0kbXfM4u+qx2cvMvrFwN+YI3/CMXu/lr0ZJ9/RtDHI2PnIjQSor9NL9A2nVPzz5LGHH/Fdt7846/Brr+4BEP2DmcQPOqXePwzfZetXmFYGGf0msYa+AdCfqUpDcD9XN/u+oBqflbgua/AihnZPXP1ohfYT9vef/EJc9Vul7rQzyBGT2N4J+GIfIlzqmMZdPuJTD9Ur9t+D8Jm4GmHSVsqmqQlufxCXkOPV1W+zT6TD+BkDx6qOS+y+r17u+0/V+LTj9MrQnSC6LK4+ZDmlI2Sn5TfI6LdI1T4PjH/zcQC9erjgnvpqf99+HzmphUZ272OiGbB7vVPu25DaBDMy8LQ1iMe3y6qtZfAmH6wfc0zjHB/xqYXGsTrM0ZNhossapaK3Ak2uP9PaIGPnI18G8ClllZkHnHLvauX4lAL1ytAtIFoX1/Au4fcPlAxv06Ncf6a9QTx1Oy37uwT8kbLS7F7jlPsy/ZRrLIvwjQEaedFs32+1HTx5b/+i/1VmNk0Dc2GQI+cktV+CWfnGILF2Sb3c8+0s665bNsfRHzOsRtkox1G71WrmxiAdm3edpGlNb5erWaoiaS4W7l9j/Ew1Pum4uO6ku00sO7DW8N7czP0nNwYZ/am1eXA5aZr6wnKEPU2eccZB86RG1o6UTmvHGYTCL+LoS2s2/2D/2tMi37I7jl7jrpkrgxw5Hxn6LIE2qoOl+x2zGOkyqepjjx859m5+rA9aOoWDM9C/6HDYXls9P3cGGT0fsYYGAFqlLB7RLU6pqH4lTLlwsEDdsl8FcEywbNUs+qVjFs9UjZ6ucbk0yJhJ/gMgPw/kXe2Yxj+mfSDolr0LwClJ9MGM2xtl4/IkxsrqGLk1iCdIV9WuMaNHVRzScFF9tfFd1fio43TL/imA90Vdd4p6mfjHkPCc3xwu1waZaw2eWoBW8/PIjTvsnnVgXV8sJ8eTHQS6VbsP4FQWnXCBpQdM48dpHaRpjptrg4yetFd3riB27/UhwjMYxhJnnfGKj5xQobpl/xOAK5SLMPZwm7Zcc4ed5rBmaAUUGegiYBc0PO2sNp7RLftRAMqP1bT9pnDcy59q7TcwlfkdFZh7g4yaxNr5VwTXx+Y79G3HLF4SBLjfnE7L/sLIqiPeUj6qn8Mu8KGp/uN3Wzv6GIVHfDzxvMsxDeWfo6rNZj1ODDKmUGfVvp0Yf+FDsC85phHb+xhHzpFq65j5Fh89geD+cd3s+45KTmfF9rac+J5K7FjM3Y5p/ImP+JYPFYMcJaFerT0KZuWfHUS0tl4qbo7jKNArgx8GaT6fpvX/LrleGboGRF9UnQOBr6ubveoL9qkWzmicGORtwuhWbS/A3lq2Sh8mXtko9d6nFKwY1GHZH9QAv496fMYxDT97qLzZjV61t4JxlWJ7iGPOqmMnHScGeRvxYyu1YpPY9iHEa0yHlzRK87f7yJkwtNva1edy8wmQn8UY6AbHLF4XZny9Yv8YhHNVaxDz/Hq591nV+FaNE4OMo1zXFvtCdqH0O340nbGtffbspS997LhfhzkQOgd2zqWm6732a6jWGTnJrjRMQ3ljoYnqeqvBa9zuLcB3nOLYLzvdh+bh0gW/UYxvyTAxyASydVn2egZu9KFq6AXXdMv+CYCz1cfkux2zN7KT5s4tO5eT66o/zAn8+8gKleer99t6kWKQSTTrsuw7GPCxbhZ/0TF7/zLIYdBZsb9DNNWWBW+p/KRTKr4fRJG+E6JX7KtB6vtBEuHmesnwcxk6CJ7UcsQgU6DvsmxvdZTfU1WISTMbpZ6qarwXp1v2bQCuVM4hemG4feaCV66c5yjn+AjssmpVBiu/dkwaXV5fXbzdxxAtEyoGUZBKt+wDAOYqhI6dktDyhlm8XyU+wI1AFJiMfeWi94hMbJ9Oy/4RActUB2CiDzRKRe8n4rT6iEEU5PTuOrso7FAIPRJCeIlcXjbVVR6/P2dGSye0flfHl5/r0GYOe1fm3q04718XuK24r3zKi4rxLREmBlGUqasydDET3a0Y7l3Z+umc325buvuKU14fvXRLzXOIaRYzD7bNKPzi8OHmhwj4Z+V6XiDjPKdsPOArJ0Rwx632Uq2Ah3yUmHb704tBfKivV4auA9HfKqcQHgdjiXL8JIFE+Fi9ZPgzVAQDd1WH1jGT8uMuUV12jqD1SEqIQXxijHvBtvHaIea/qZd7/Vxy9jmrycM7LXszAeqrnDA+7ZQNbz2ylv+IQQJIqFv2rwAsCJDqP4VpwCkXla8o+R9ALUO3hny9gekCFx4wDT8PQqo1knCUGCQgcN2yvTvI7QHT1dKIfuCUiqm8JDVeg3q19t9gVt9O28UCZ43hLbXUsh8xSEDp9E32fLQhTvG3O6ahvNBdwGn4SuuoDJ2lEflZjvS/5rzUtmT39ae87mugDAWLQUKIoVv2nwL4VogSE6UeHFkgIvqdoyJotKsy9HEmUt+erYV38fJwiUFCHjR6ZXADSPt8yDJvSSfg3rppqK8lHOXgCrV0y/a3IDj4BsfsDfW0sUJbsYSIQUJi1S3bu5l2esgy70jP+hZoumV7e6+cpzpvYr6iXu79ump8VuLEICGU0LfY8+HGdB7SAhvY+F2ji+Ge2zD7HgmBPPFUMUgI5Hp16BIw/WuIEhOmEnhL3ewtxVE7qppH3iFpe061HgO1QrP5wf1rT9urmpN2nBgkhAJd1doaZr41RImJU5nvccq9F8dSO8KiAXbbbal3SMQgIQ6WOE7Qj2rnAcc0lH/jh5hG6FS/HIhg1Uutsf+IGCTE4eH3wPA1FNHXnVJRfbE4X8WjD+60avcQ+CIflQMvMuFjjNChYpAQCOM0CAM3NUxjfYj2Ek/ttGybgKLqwES00WU+jcB9APWBsQcanmcX3yswHsjC5kViEFU1x4nr2jy0mDV6IkSJyVIvdUzjrphqx1J27B2SyDYb8u4HuaRtbZR6Il1Wyc/kxSB+aI0Tq1u2Z5DFIcu8M70d85yrjD2R1425YIB3SKbuiOg2p1RU389l6orKEWIQZVTjB8bxuEkr/rw6ms7IK8reZkORPu7OwMMN01B+BTikrG+mi0EiIOl79fVJxiTg5xofOndfecFrEbSWWgm9WvsamD8eaQMp3DwVg0Sg4OyBwe72prYTwJzQ5TSc7aw2Hg9dJwMFdMv2nvw9K8pWGNTfMItbo6w5WS0xSESkO6u1c4jZ23Mj+IewwSkZ1wcvkL3MqPdyZ+CphmksSmqmYpAISY89m+U9/u774UUC1tdN46YI20m9VKdVW0XggagbIabL6+Vk1uESg0SsXvfA7uPd4UP9IM1bLf2EqcvzVg3a1v1m8ampY1srotOyt41cql0YeddE9zilYiKP4YhBIlfvSMHZm5/tmkGFlUy0AsBpAOaNvX/zAgN7Cbij2d7+4MGrTlZ+2C+mVmMpe2xl+zFNmultVx3LxzGNRI7dRAaJhZAUzTSBuZvsnkIb4lv9MaH7RGKQTB9mrducXqmdDeL4liJ1cbazJv6rfWKQ1j0GM915rC+TeTPXcLq3W2/cEMQgcRPOaX19kz0HbTgY2/SHMTeJrbjFILEpKIXjuFE4SpV5h1PufW8ShMUgSVDO6RgBdulSIpXks2piECVJJCgIgW6rttAFbwuSO1mOBlqU1H0jMUjU6km9txDQraEBgCJ8VJ23OmZvf1KYxSBJkc7pOB1bBs/UXO2HALrDI6Dd0PiCJK5evdGrGCS8alJhCgKRvUSV0KXdo6cjBpHDOxECY/dFngQwy++ABBxqNnH+gbXGw35zw8aLQcISlHxlAp5JyMXNI4+sr1RNGn0vvaBtbPT3hHuVQHXAt8WJQQKCk7TgBDqrO1cQu97bhpdMUOV19lbNJ+2uNBds8HoTgwTXWTJDEjhmk31se7u2GMwnEDdPALTnoWGP8+Khh3D9Am+DotQ/YpDUJZAGskxADJJldaS31AmIQVKXQBrIMgExSJbVkd5SJyAGSV0CaSDLBMQgWVZHekudgBgkdQmkgSwTEINkWR3pLXUCYpDUJZAGskxADJJldaS31AmIQVKXQBrIMgExSJbVkd5SJyAGSV0CaSDLBMQgWVZHekudgBgkdQmkgSwTEINkWR3pLXUCYpDUJZAGskxADJJldaS31AmIQVKXQBrIMgExSJbVkd5SJyAGSV0CaSDLBMQgWVZHekudgBgkdQmkgSwTEINkWR3pLXUCYpDUJZAGskxADJJldaS31AmIQVKXQBrIMgExSJbVkd5SJyAGSV0CaSDLBMQgWVZHekudgBgkdQmkgSwTEINkWR3pLXUCYpDUJZAGskxADJJldaS31AmIQVKXQBrIMgExSJbVkd5SJyAGSV0CaSDLBMQgWVZHekudgBgkdQmkgSwTEINkWR3pLXUCYpDUJZAGskxADJJldaS31AmIQVKXQBrIMgExSJbVkd5SJyAGSV0CaSDLBMQgWVZHekudgBgkdQmkgSwTEINkWR3pLXUCYpDUJZAGskzg/wAEYucFjeGKvgAAAABJRU5ErkJggg==;" parent="1" vertex="1">
          <mxGeometry x="-169" y="484" width="78" height="78" as="geometry" />
        </mxCell>
        <mxCell id="oiUiUNXv8FLWz6BhB0Yb-26" style="edgeStyle=orthogonalEdgeStyle;rounded=0;orthogonalLoop=1;jettySize=auto;html=1;exitX=1;exitY=0.5;exitDx=0;exitDy=0;entryX=0;entryY=0.5;entryDx=0;entryDy=0;strokeColor=#000000;strokeWidth=1;dashed=1;" parent="1" source="oiUiUNXv8FLWz6BhB0Yb-27" target="oiUiUNXv8FLWz6BhB0Yb-16" edge="1">
          <mxGeometry relative="1" as="geometry" />
        </mxCell>
        <mxCell id="oiUiUNXv8FLWz6BhB0Yb-27" value="&lt;font color=&quot;#7ea6e0&quot; style=&quot;font-size: 14px;&quot;&gt;Context样例&lt;/font&gt;" style="text;html=1;align=center;verticalAlign=middle;whiteSpace=wrap;rounded=0;dashed=1;strokeColor=#A9C4EB;" parent="1" vertex="1">
          <mxGeometry x="192" y="500.5" width="133" height="45" as="geometry" />
        </mxCell>
        <mxCell id="oiUiUNXv8FLWz6BhB0Yb-28" style="edgeStyle=orthogonalEdgeStyle;rounded=0;orthogonalLoop=1;jettySize=auto;html=1;exitX=0.5;exitY=1;exitDx=0;exitDy=0;entryX=1;entryY=0.5;entryDx=0;entryDy=0;strokeColor=#FFB570;strokeWidth=2;" parent="1" source="oiUiUNXv8FLWz6BhB0Yb-29" target="oiUiUNXv8FLWz6BhB0Yb-74" edge="1">
          <mxGeometry relative="1" as="geometry">
            <mxPoint x="478.5" y="638" as="targetPoint" />
          </mxGeometry>
        </mxCell>
        <mxCell id="M-sG7biV-YqiBXyDXIAh-3" style="edgeStyle=orthogonalEdgeStyle;rounded=0;orthogonalLoop=1;jettySize=auto;html=1;entryX=1;entryY=0.5;entryDx=0;entryDy=0;strokeColor=#ffb770;strokeWidth=2;" edge="1" parent="1" source="oiUiUNXv8FLWz6BhB0Yb-29" target="CHO04k-N2ElT4XNojvUd-1">
          <mxGeometry relative="1" as="geometry">
            <Array as="points">
              <mxPoint x="479" y="749" />
              <mxPoint x="174" y="749" />
            </Array>
          </mxGeometry>
        </mxCell>
        <mxCell id="oiUiUNXv8FLWz6BhB0Yb-29" value="融合上下文的Prompt" style="text;html=1;align=center;verticalAlign=middle;whiteSpace=wrap;rounded=0;" parent="1" vertex="1">
          <mxGeometry x="414.5" y="469" width="128" height="28.5" as="geometry" />
        </mxCell>
        <mxCell id="oiUiUNXv8FLWz6BhB0Yb-30" value="&lt;font color=&quot;#cc0000&quot; style=&quot;font-size: 18px;&quot;&gt;&lt;b&gt;（2）检索&lt;/b&gt;&lt;/font&gt;" style="text;html=1;align=center;verticalAlign=middle;whiteSpace=wrap;rounded=0;" parent="1" vertex="1">
          <mxGeometry x="22" y="388" width="87" height="30" as="geometry" />
        </mxCell>
        <mxCell id="oiUiUNXv8FLWz6BhB0Yb-36" value="&lt;font color=&quot;#cc0000&quot; style=&quot;font-size: 18px;&quot;&gt;&lt;b&gt;（3）增强&lt;/b&gt;&lt;/font&gt;" style="text;html=1;align=center;verticalAlign=middle;whiteSpace=wrap;rounded=0;" parent="1" vertex="1">
          <mxGeometry x="252" y="418" width="87" height="30" as="geometry" />
        </mxCell>
        <mxCell id="oiUiUNXv8FLWz6BhB0Yb-37" value="&lt;font color=&quot;#cc0000&quot;&gt;&lt;span style=&quot;font-size: 18px;&quot;&gt;&lt;b&gt;（4）抽取&lt;/b&gt;&lt;/span&gt;&lt;/font&gt;" style="text;html=1;align=center;verticalAlign=middle;whiteSpace=wrap;rounded=0;" parent="1" vertex="1">
          <mxGeometry x="20" y="585" width="87" height="30" as="geometry" />
        </mxCell>
        <mxCell id="oiUiUNXv8FLWz6BhB0Yb-75" style="edgeStyle=orthogonalEdgeStyle;rounded=0;orthogonalLoop=1;jettySize=auto;html=1;entryX=0.5;entryY=1;entryDx=0;entryDy=0;dashed=1;exitX=0.5;exitY=0;exitDx=0;exitDy=0;" parent="1" source="oiUiUNXv8FLWz6BhB0Yb-54" target="oiUiUNXv8FLWz6BhB0Yb-79" edge="1">
          <mxGeometry relative="1" as="geometry" />
        </mxCell>
        <mxCell id="oiUiUNXv8FLWz6BhB0Yb-54" value="目标技术协议文档" style="shape=image;imageAspect=0;aspect=fixed;verticalLabelPosition=bottom;verticalAlign=top;image=data:image/png,iVBORw0KGgoAAAANSUhEUgAAAMgAAADICAYAAACtWK6eAAAAAXNSR0IArs4c6QAAD+9JREFUeF7tnXuMVNUdx7/n3n2wLG8RFVgBodQiD2UfLCBRKj4w1trW1reJaVrbpjVaobUxtrUxtnVnwUVReSQmpe0fTW1rmuIrrdqoaQSCrSLSUnziAxF0H/PcmdOcdQcXuuDOnfs7c+7MdxJiYu75nd/v8zufPffOzL2jwBcJkMBRCSiyIQESODoBCsLVQQLHIEBBuDxIgIJwDZBAMALcQYJx46gKIUBBKqTRLDMYAQoSjBtHVQgBClIhjWaZwQhQkGDcOKpCCFCQCmk0ywxGgIIE48ZRFUKAglRIo1lmMAIUJBg3jqoQAhSkQhrNMoMRoCDBuHFUhRCgIBXSaJYZjAAFCcaNoyqEAAWpkEazzGAEKEgwbhxVIQQoSIU0mmUGI0BBgnHjqAohQEEqpNEsMxgBChKMG0dVCAEKUiGNZpnBCFCQYNw4qkIIUJAKaTTLDEagpII0/kKPRlVijqe8OTqnTwhWAkcFJeApvKXgbx9XU/3SIzeoVNA45TyuJIK0xJLfygHfVsDccoYbodoSgN4OjY1bVtY9GKG8xVO1Ksisn+wbUT9y5EZAXSZeGScISuBvPV21y1++XaWDBiincdYEafpl8rPKxyvlBK+ca8n52Ynbbqp/p5xrHEpt1gRpjiX2AmriUJLiMQ4QUGrHlptrZzuQSUlTsCJIc1tyPRS+UdJKOXkAAuq2LStq7wgwsGyGiAvSFEueq4DHy4ZYhRWSy+H8bT8YVrH9ExekuT15AzQ6KmxdlU+5Ciu33DwsVj4FFVaJvCCx5DoA3ywsLR7tCgEFten5FbXXupKP7TzEBWmKJbYqqEbbhXG+cAho4F9bVwybF0606EURF6Q5ltTRw8KMBxLYsmKY+Dpxlbh44RTE1dYPPS8KMnRWBR9JQQpG5twACiLYEgoiCNdSaAoiCJqCCMK1FJqCCIKmIIJwLYWmIIKgKYggXEuhKYggaAoiCNdSaAoiCJqCCMK1FJqCCIKmIIJwLYWmIIKgKYggXEuhKYggaAoiCNdSaAoiCJqCCMK1FJqCCIKmIIJwLYWmIIKgKYggXEuhKYggaAoiCNdSaAoiCJqCCMK1FJqCCIKmIIJwLYWmIIKgKYggXEuhKYggaAoiCNdSaAoiCJqCCMK1FJqCCIKmIIJwLYWmIIKgKYggXEuhKYggaAoiCNdSaAoiCJqCCMK1FJqCCIKmIIJwLYWmIIKgKYggXEuhKYggaAoiCNdSaAoiCJqCCMK1FJqCCIKmIIJwLYWmIIKgKYggXEuhKYggaGlBPAWMdODp/PG0RiYrCLKEoSmIIHwpQT4/08Mlc3y0TvUEsy8s9LudGuuey+IvO8rLFApS2Doo6GgJQX66vAoXzvILysPmwc/uyeGmP2ZsTik2V5UHNIz1Nw9pAqU0tA7tN2eqq7w3c9Bbx3j+Q/dfpQ4OKYeQDwqtmKPlFbYgZ83w0PbF6pAxhB/uzsd78acXo7+TGEFaptWGD6jAiJ1JfaAnmVn7u+tqf1zg0KIOj5wg7ZdUY8l0d06rjka/MwksW5sqqjkuDHZFkDyLzkTupZN3efNuv13lbPCJnCDP3liLanfPrg7r2bK1aXRG/CcaXRPEAO5J6YNj0qohdq3qkZYkcoI89b1aDK+RxhJO/CUdKaR6w4lVqiguCmJYJDN667qvec3SXCIniOsX6PmG/eO1HG54KPoX6q4KYjgn0rhz/WXqVklJIifI3IkeNl7h/kX6yoczeHq3ldNkyfUBlwXJZJG871JVJwkgcoIYGF9f6OP6RVWSXIqK/ZutWXQ8HfFzq34CLgtiUjwYz934q6v8jqIadozBkRTE1DPtOIUvzP74g8LJoxU+KuHF8NjhCns/1NjyRq7vQ8Kd72mpflmP67ognYnsYw9eWXWBFJjICiIFhHEPJ+C6ID1p/erGy7xTpPpGQaTIlklc1wWJp3Tnhsu90VK4KYgU2TKJS0GEGxn2V02E02X4IwhQEOElQUGEAQuHpyDCgCmIMGDh8BREGDAFEQYsHJ6CCAOmIMKAhcNTEGHAFEQYsHB4CiIMmIIIAxYOT0GEAVMQYcDC4SmIMGAKIgxYOHyVD7RML+Ett+Zrbfl/g9TKT9KFFwDDH5tAnyAzSyhIPj0jibnF/4g7CCgIV3BJCTgjSJ6CEWTAnQQUpKTLg5M7J4hpidlNjCQaoCBcoyUl4KQgeUkyFKSki4OTA84KYpqTBeJxft2d67SEBJwWBEC8i4KUcHlwaucFiaNzw1cVb5g62lIdNQyorxG/70vMlHc63b5/3XlBErprw6XeKKkGia8sqQ8KZ5/k4XMnKoypEy9Bin1f3GRGY88HGi++nYN5XKlrL+cFSemuDV+mIIetG/PTB9PHu/983kIWuxHl0Z05vN/t1o5CQQrpYoBjw95BWqZ4mDepvOTIYzWPDtr8sltPhKcgARZ9IUPCFuQr83yMq4/2adWx+D38Yhb7utzZRShIIas9wLFhC3LdAh9VfvkKYp7pa65HXHlREOFOhC3IlY0+6mvLV5C/7sr2XbS78qIgwp0IWxDzuNETR5WvIL/d2ouetHBTCghPQQqAFeTQsAU5aZTCRbMj8gs6BQJ7dk8WL7/rzu5h0qcgBTax0MPDFsTMP36Ewpfmlpckrx/I4fFX3Ln2yPe5ugponlPC+0HM3wuDZZB7QUyOcX4OMriS5onqp56gMLIWqInwRfvBhMb+bo1d+9zaOQ4TZG4JBRnYfiOJ+Zr7gL8jFKTQLYvHh0qgbwdxRZB8ZeYarf/jIgoSarsZrFACTgpiiuiXhIIU2lEeHyoBZwUxVSaBeJLfxQq14QxWGAGnBTE3THVRkMI6yqNDJeC0IOZdrE7dteESfps31KYz2NAJuC5Iolt3r7/YGzn0igo7UvwjaYnPQQorkUcXQ8B1QZJx3b3uIgpSTI85tggCzguSQve65Yo7SBE95tAiCLguSCKpe9Zf6I0oosRjDuUplhTZMolLQYQbyWsQYcDC4SmIMGAKIgxYOHxNNdDUVKLvYuWf6p7/suIgtfIUS3gBMPyxCfQJ0loiQQamZmTJ9P8b8P8pCFdwSQk4I0iegtlNUp98o5eClHR5cHLnBDEtMbuJeYZYDqAgXKMlJeCkIIaI2UkSFOSoi8P3gJnHq77708N49OhbH2rs79Ew/+XrEwLOCmJSzACJTn4O8n/r1dxNeM5MD+a/Yb9e+yCHJ3a5d+tr2HUONZ7TgphN5IDuWb+cHxQe6ueIWuCKxqqh9jfQcc/tyWKHYw9PCFRICINcFyT5kY6vO8+rD6HUQUOE/yf4iGnC/hzkvFM9TBkn/+jRzTuy2PsRT7ecF6Rbx9edQ0EOaXf5fB8jh4l7jWf+m8XO9yiI64Kk4jrxwFJvOHeQfgK2Hj265fUcXtjLaxHnBUnoxANnU5BDfyBsPbz6yf9ksft97iAURGpv6o8b9jXIwqkeZk+UvQaJp83PEORwME5BKEjEBDHpXnSaj5NGy12H/P6FLOXoXxcUJIKCmJQbGzzMbwh3J+lKajy9OwfXfzdQuGWHhacgwrTDPsUamO6wamBEjUJ1CI/p7U5rxNNAltflFGQAAbnzFKFrEGGfGf4IAtxBhJeE5A4inDrDA6AgwsuAgggDFg5PQYQBUxBhwMLhKYgw4OZY0tza4sA9m8KFlml4CiLc2OZYcjeA6cLTMLwQAQoiBDYftjmWfBLA2cLTMLwQAQoiBPaQIG2JTVDqauFpGF6IAAURAvvJDpL4OaBuEZ6G4YUIUBAhsANOsb4DYK3wNAwvRICCCIHNh21qT16sNB4WnobhhQhQECGw+bBnrNHHV6VT+4SnYXghAhRECOzAsHwnywJkoSkoiBDYIwThdYgFzhJTuC5IOonO+89SoyVqNzHFv81rJmlpT87UGrukimBcOQLOC5LGgfuXqOOkCFgRxCTP0yypFsrGdV2QTAb77jtTnSBFwZogLe2pW7XWd0gVwrgyBFwXJJvBO/eeqSbKVG/pFMskvyDW05iD/zyAcO+TlSLDuH0EnBekV79572LvZKl2WdtB+q9F7tEa35UqhnHDJ+B5QOtid7+MrTX+uaZVnR5+5R9HtCrIglhqVg7a7CJiz1KVAlXJcY0gRhQnXzk81bFQLZXKzaogfbtILHWXhl4pVRDjhk+gsbkGtRYe9xokc5XFprsXqWuDjB3KGPuCtCWmaaXMLjJ+KAnymNITOG12NUaPdXMLUb344d2L1V1SlKwLYgppbkv8DErdJlUU44ZLYMoUH5NOlv3JicAZ96KlY7HaEnj8pwwsiSAz1ujasZnUY9A4S6owxg2PwKiRCrNPrwkvYFiRFN7uaFGTwgo3WJySCGISabwrOd3z8AyAEyULZOxwCDQ21aC2rmTLZdAivBx+vXqhuiacCgePUtKKm9oSZyulzC25fDlOwMXTLJ3GkjVLlPkjK/YqqSB91yPtqauh9SaxChk4FALmbd7m1hr4fsmXzMf1aPy9o1WJn6I7UW1zLHULoH8eSicZRIzA1Kk+JjY4crGewXkdZ6onxIrtD+yEICaXplhyuQI2SxfM+MUROGN+NerqS/uWr/RnHwMJOSOISWr+quQML4dHFDCjuDZytBSBMWMUZs0p4TtaGjs7WtUsqfqOjOuUICa5hat0XSabfkApLfbpqC245TrPxEk+pp5SklOtD3Uay9YsUdtssXVOkHzhze2pO6H1j2yB4DyFEbD9rpYG4n4Ol69eqP5cWKbFHe2sIKas5vbEOYBaAY0LiiuToyUINDT4aJhqZSfZ76Vxzeol6lGJOo4V02lB8ok3tSWv9xRWaF6b2F4fnzrfhOM9TJlehepqoaWUwzbfw5WrFqh/f2oyAgcIVRV+pova9IQMUiuhsCL86IxYDAFzU9Upn6nCuONC+C28fCIavV4O96xepL5fTG7Fjo2MIPlCW1frqdnezFKl9FINbe4DmFwsBI4Ph8C4sR7MBfyoYr75q5BSvfhDlY9bYwvUq+FkFjxK5AQ5stSmVfEWZNW5SqllABr6hXH3FrjgvYrMyPp6hQkTPIwZ46FuxJA+M+lBDtu9LB7Z34OOTeerHleKjbwgg4E0T3P0kvEG5fuTlcZkrfUEV4BXWh5+FbwJ4/1pY8b5ueF1QE2NB99DQil80JvFG/Cw/Z5FffcHOfkqS0GcJM2kIkmAgkSybUzaFgEKYos054kkAQoSybYxaVsEKIgt0pwnkgQoSCTbxqRtEaAgtkhznkgSoCCRbBuTtkWAgtgizXkiSYCCRLJtTNoWAQpiizTniSQBChLJtjFpWwQoiC3SnCeSBChIJNvGpG0RoCC2SHOeSBKgIJFsG5O2RYCC2CLNeSJJgIJEsm1M2hYBCmKLNOeJJAEKEsm2MWlbBCiILdKcJ5IEKEgk28akbRGgILZIc55IEqAgkWwbk7ZFgILYIs15IkmAgkSybUzaFoH/ATq0NxTNnFiwAAAAAElFTkSuQmCC;" parent="1" vertex="1">
          <mxGeometry x="70" y="862" width="91" height="91" as="geometry" />
        </mxCell>
        <mxCell id="oiUiUNXv8FLWz6BhB0Yb-67" value="依据质量设计要求&#xa;生成的问题" style="shape=image;imageAspect=0;aspect=fixed;verticalLabelPosition=bottom;verticalAlign=top;image=data:image/png,iVBORw0KGgoAAAANSUhEUgAAAMgAAADICAYAAACtWK6eAAAAAXNSR0IArs4c6QAAIABJREFUeF7tfXuYHGWZ7+/9ei6Z6epOyExXD5dwjcl0dcI553FXJIDgohIxWQlnGRJ0VwGPN9xVgzG7gGdXJWDk4qogyBp1vQABJZxNlhVNVpQAgu6zz0NmqmdiCEIgma5OCEzXzGQm0997qMkEQpJJT1d9VX2r+re/9/b7vt9MXd4LIbxCBEIEJkWAQmxCBEIEJkcgJEh4OkIEjoFASJDweIQIhAQJz0CIgDsEwv8g7nALpeoEgZAgdbLRYZjuEAgJ4g63UKpOEAgJUicbHYbpDoGQIO5wC6XqBIGQIHWy0WGY7hAICeIOt1CqThAICVInGx2G6Q6BkCDucAul6gSBkCB1stFhmO4QCAniDreSpV7NzjsjwnyKENwMwc0k0SwhphFxMzGaJfM0IjQ7ipkxIoj2MWGEmUYE5D4WGIGkESlppED0woxk93MlOxEKlIxASJCSIZtcYGCgsw3DDXNBcq4A5jAwlwhzwJgLoEGhKUfVGAh9zNhKQJ8EtoJFH1rG+uLx3j2KbdWtupAgHrb+1RfmH9fYyueA5UUAFjIw24M6ZaIEbAPwC5B4dP8QPTHjlC17lSmvM0UhQUrYcObLIvbuLeeiQOdShC4A4z0liJdvKWEjF/gxRHiz1j5/M9GDhfI5U12WQ4IU2a8dO05qmdEcX0xEi8B8IYATqmuLj/B2J4g2MfOGV0cG1s+a9dJwlcfjq/shQSaB17bSCwlyEYgWM+NkX3ehTMqJ8CKY1zPEBk3v+UWZ3KhosyFBDtmegWznggiJRQwsBjCvondOvXPdBKwvsNwQT/Y+qV59dWoMCQJgaHdqiZT0MQAXV+c2Kvf6ESH4e63tmXXKNVeZwromiN2fXgbiq0Fwni3C63AEGJvAtEbr6LmvXsGpS4IMWMZHCbiagHPrdeNLiZuBzQysievmD0uRq4W1dUWQQcu4ioFPAvjzWti8MsTwewLujurm98tguywm64Igr/Wn3imIVhLhkrKgXGNGmfGwZF49vSPzuxoL7Yhwapoge/bMjjcVmlYSeCVAkVrfzGDj4wKDVo9GRle3tW0bCNZ2cNZqliB21vgQgJUgzA8Ozjq0xNgCYLWWNH9ai9HXHEHs7Lwzmfg6Al9eixtWqTExaC0x3aQlu5+tVB/d+FVTBBl/bSv4NgDHuwEjlPGMwC5IuraWXgvXDEHyVvqrBL7B8xaHCjwjwKAbY3rPlzwrqgAFVU+Qvbs6T20Q4nYiLKkAPEMXJhBgxroxKZcfd3zvn6oZlKomyKCVuphBtwPjBUnVexH2ssQrBIwXOjHQRgIzwTiueoMa97yPwMujeuaRao2jagliZ1MrQPT1KgB+Pxh9DPQJol5m2SchtiMi9tD+4T1ax7Y9RJBHi4MZwu6f3caNLW0oyDYBeTqRmCuZO8n5o0DjfxgaKx4D5i9qycwtFe/nURysSoLYVvqfAf5sxQHOGAHxU5D0OwKeEoh0t3Rs2e6nn8P980+XKMxj4GwIfieYzsZEbbufdkvXTd/U9J7PlS5XXomqI4idS90LpmXlhe2AdQbyAB4lwtMRxtPTXht9ht62baScvvEfZzfvm970jgLhLGacBeAiAmLl9OkN28T3aYnMFRXhyxSdqCqC2DljI7gCMm8ZmyhC6wj7H25t3/ryFLEuy7Kh3XNOZDRewgVeUhFZy4RNWsKsjlJlAFVDEDtrbAGVr4iJgV4C1hUKeHj68eYzZTntHo2+tst4RySCSxhYQkCnR3XuxRndWtKsigyHqiCIbRlZALr7HXEvyeAnBWhNrWWwOpnNEnw1gRa4R8eTpKXpZtKThgCEK54gtmVwADgcaYKxSQha05qo7WKhoVx6mZTlKxrTdLOiz2BFO5e3jOcIOD1YgvAGyfh+PFlf5aYD2dQSQbgKoEVB4s3A9phunhGkzVJsVSxB7Jzxq4D7Tu1k5lWxZOY7pQBYa2vz2dSniej6QNsbETZqCfO9lYhlRRIknzW+S4SPBwjYDxpYrJoW9rsdh3xfdt4ZYyQdklwZ1B4w455Y0vxEUPamaqfiCGLnjFvBuHaqAXhc183Eq2KJzP0e9dSkeD6XWko8/t8kmBZIhNu0hPmFSgKzogiSt4xVBFwXBEDMuFuO0vXTZ/W8EoS9arXx2o70TNHEq4jGa/l9vxi4KaabDikr4qoYggSVW0WADcKKaMK8uyJ2oEqcGMwZnwTjFgY0312uoNytiiDIRFbuv/sNPIGfLHBkRTzZHXYOdAH2QHbegggVbuEAvp0Q+AOVkAVcdoI49RyNEeH0hfU1Zd25pRomrNB103ZxNkKRCQQsy9BaGLcEcMvVt78gF5a7nqTsBMlnjYf8LnZyKg2jemZVeMrVITBopa53KgfVaTxSk1N0FUual/ppo5jushIkkDJZxrVa0nSKqsJLMQJ21lgOgtMDwLer3OW7ZSPIRIOFe31DFoAAL23VM2v9tFHvuoes1OUS5O9rcklXlKsRRFkI4rTmAUnnucO37iMseX6sI9Nd7wc4iPjz/al5JMjpj+XXtQssFpajpVBZCJK30vf72beq0hPg/DpF5dbrZ2Kp03crpvcsDTrGwAky3vGQ8BO/AhWRhlmtbc++5Jf+UO/kCAztOfMkWRjb4RtGjA8H3cExUII4vXKbx5o2+9UOVLJcEE/2PuXbBoWKiyIwkO08W5Dw5zsTY8tIw+i5QfYCDpQgfqaSMNAV080Hi+5guMB3BPKWcRkBD/hhKOhUlMAI4owgiAhs9qXLOtFyLdHzDT82JNTpDgE7l/48mH14vc6FgsS5QY1eCIwg+ayxzo/5HM4X8ljS/JS7bQyl/EQgnzXu8uOLuzOfJJY0A+mkGQhBJiY7rVG9GU5u1SDoojB9RDWyavQ5aSlR8KN+5G45I/SC6BMQCEFsy3C6gCgde+Zk5RZYXBQmHqo5zH5pOZDgKB/1IQv495puvsMvvw/q9Z0gzsBMAfxAdSBE+FSYsq4aVX/0OanyzLhLtXYJXOn3YFHfCZK3jMdVT5MNnztUHzX/9fnxPOJM343p5nl+eu8rQXzKt+oujND5YSWgn8dCvW6nMjHSzL9RXr7rc56WvwTJGhtVt7tk4mVhDbn6AxyExoka9/uU2mJs0pL+tTL1jSBDu1NLpKSHlIIB/EDTzasU6wzVBYiAbRnOjHWl3VKE4Etb2/3pY+YbQWzLcEpoL1aI/c4GFu8KW/MoRLQMqiZaCv1Wcd+tRzTd/IAf4fhCkIFs5wJB4gmVDjPzNfXe1E0lnuXUNdGc7k6VPkiW58STvcpzwHwhyKBl3MTAP6gDgDdoemaxOn2hpnIjYFup9SrbnBJwc1Q3lbeM8oUgtmU4xTPKmo1J5kvrrVduuQ+w3/YP9AJW+ozarenqRyooJ4htpRcC/B/KAPb5LYUyP0NFJSNgK3/LSe/X9B6nUlXZpZwgg1bqDgZdo8pDQXRFrY8gUIVVtekZH73ArKwvAYHvjOqZz6jEQSlBduw4qWXmtHgvM05W4aQzvCamZ85RoSvUcWwE8lnjn5oa6IHmth4zSKzyVuoJVUN8iPDiK/sGOmfNemlYVQxKCZK3jC4ClHURCSpjUxWY1aonnzW+/Poo6v8LQk+joK4gSaI605uBy2O6qaxYSylB7Fz6R2D+axUHxZkJGNPNlApdoY7JEchnU18hoi+9saIMJMlbRkbZzESiH2uJnr9RtefKCMK/vqBhMG05Bfsdipy7WfPhtZ0i32pCzaSN+wImiW0ZN0HdZ4H+aI8+i9792JiKTVJGEDs7730g+agKpxwdhQLOqtZpsqow8FNP3krfSODJxwwESJKJ6btPK4uXxUVasvuXKvQpI4jShgzhq10VezupjinvVYAkUfnKV2VjB3UEyRqbiaDkjRMJ+ky0vUdpKoKvJ66KlJd8OxMQSQZ3p69hyXeogJIZT8SS5rkqdCkhyMBLnW2iSexW4RAD+YgYS7W2b31Zhb5Qx5sI2JZx8+sjCP++ZEwCIMnQ7jknFmSD87AeK9m/owjIUdkeP6l3j1ddSggyZBldUtHrXQJ+HtXNv/IaWCj/VgRsK/U1gFa6xKWbheiKtXdnXMpPSWzQMn7GwP+e0uIiiwRweauC171KCJLPpu4hov+jIjAA12m66fylCy9FCNi59Gowf9GVOuZn5Zjsip/Y1+dKvgQh2zKcBFfnjZbni5n/JZbMeJ6UrIQgg5bxHAOne47KUcD8Pi2Z+ZUSXaES2Ln018G8wiUU/10AdU3Xe7a5lC9JzM6m3gsiVW+ftkd184ySHDjKYs8EGRjobBP71Dx/gDGaGxqaftppf9rnNbBQHrBzxi1guBurTPyHSKPsapnR93xQWD7//KnTEq2tr4HQpMKmnCbb43FvzyHeCZKdt0CQVFIcxYynYklzgQpw6l2Hp3nzjGf2F7jruBMyLwSNYz5rPEmEs1XYlSzO8do3zTtBLONKATh1xt6vChwk7z2o4DXYOeM2MJa7sczAU5FIQ1e5Rkh4IvZhAUvgqrhueurJ5pkgrl8dHu1+T+CSaLv5/9xsbChzAAE7l7odTJ93gwcBm0HcFU1kdrmRVyEzuNv4IEs8rEIXgK9puumpstUzQfKW8RABShoJR2TkjJaOLdsVgVN3auxc+htg/pybwBn4LbHo0pLdWTfyqmSG++efXhCF51ToY2BdTPc2JdczQeyc0Q1GWkFA+zXdVPJwpsCXqlORt4xvEvB3Lh3/tRwb64qfsFXJx16XPrwhZlvGKIBGr3qc9H0tYXoq/fZOEMvYD6DBczCMbi2pvqbYs19VoCBvGd8i4G9duUrYGG2MdNGMLXtdyfsgZGeNLSAlPQ3GNN30RDRPBHk1O++MBpJK3pEz4+exZPgFvdTzlreMbxPgssyUfznaMNI1c+b210q16+f6fNb4GZGaL+pjLGbPSHa7vmXzRJB8f/ovSPAmFWARaFVU77lBha560ZG3UneQ+/r//4gCXaSbdqXhNWilb+RjpeKX4DBLujDW0fOfJYi8ZaknggxaxvsZeMSt8bfIMf+Nlsz8WImuOlCSz6buJKJPuwmViDa0tse7iJ5SVrvtxo/JZOxs6q9B9CMVOgm4OKqbrrvseCPI7tQlLGmdikAk07nxZI+SD44q/KlkHfls+jtE7GrsHDP+TRsY7aK3bRup1BgHsulzBPFmFf6R4CXR9ozr18aeCDJkpS6XoPtVBCJFJBVv39KrQlct6/AyZ4OAda0JvYtITTmqXzgP7J7fKWRBSeawAC9t1TOuG4l4IohtpT8C8A9VAMWFUT12/LacCl0qdYzsSRuj+6WIdWS6Vep1oyufNe4mwifcyDovQW79jtn15S9DupEPUia/a3aCIk2WGpv0UU3v+Ve3ujwRZDBnfJwZ33Vr/FC5aMKMvN56pqI2zyHHfskPgCHAYqmW7H5WRaxudOSzxneJ4DZ9+wFNNy93Y7ccMswQgzmjoMK28wclmjDvcavLE0GGLONvJfAtt8bfkCPs1RLmTM96FCo4hBwHP4L2EbAsqpv/rdDMlFR5qrchvk9LZK6YkqEKWmTnjFfAOM6rSwL4u1bd/LZbPZ4IYmdTK0D0dbfGD8ox47lY0pztVY8q+aOQY1w1A9sEyaXRRO9/qbJVTE/eSv8LgT9WbN3RfmfGT2NJ88NuZMstk88a24jguZ7DKRTTkplb3MbjiSCDVuoGBn3VrfE35BjPaEnzLM96FCiYjBwHVROwfayAZUG0JLIt43sArnYXFv9I0zMfcSdbfik7azwNgucxzwT+UlTP3Og2opAghyBXjByHEPoFwby0tSPzO7fAF5OzLWMNALfj5qp+VF1NEKSWbrGmTI43T/YOybTMj283Xub4EdH3ookeVf0BivHYt99r4harVh7SXZDj4MHYKYGlcd18XNVJsS3DKfD5qBt9zLgnljRdvQZ2Y89PmZp4SK+V17z5XWkDgh8gcpW23x8hubQl0evMAPd02VbqhwC5em4goruiiR5XqSeenPZBuGZe89bSh8KJr7dO2/z5LvbcYknLvCTF2Vb6XwF21ZWcgDuiuuku3d1FsH6L1MyHwlpLNRnIdc4RLByS/I+SDwFjDyK8VGvPbCxV1svYCAa+FdPNz5Zqs5LX10yqyWANJivus9Kzx8AOSf5XyYeIsBeSlmnJnil3ubdzxo/BcPetgvkbWjLjqjlDybEFKFAzyYq1mu7uFII1CrmWGW8v9VwwMCCApVNJsbZzxk/A+FCpNsbXE27VEqbbhnCuTAYlVDPp7rVcMPVq/9zTGoRzu0V/VurBIMAukFwWT/RumEw2n03dS0TLStU9vp7p61qyx22fXVcmgxSqmYKpWi+5Hd6bOqUwSg+4+6LLw0S0NJow/+3ww5W3UvcRaKnLQ1fzk7dqpuTW2WC7xps2vPKycXJjI9YS8M5SDzQBIwXmZfFk5o2isryVvp/ArjJrCXRjVO95c55gqQ5VyfqaadowTpA6aPsztOfMk7iwfy2D3LRFHRNMS1uTPT/PW4ZDtC435/T1bwNfiSXNf3QjW20yNdX2p14axw3m5p4AjqxlwM3kIsnAzwm4zM1hJaJ/jCZ6vuJGttpkaq9xnNupRUfZOZL4YLTjyHv2StnkwVzqeMnk/Bc4LyifCHxDVM+sCspeue0M9ht/yQKq2s+Wv/XogMrm1RJf0zq89VL1e4Pt7LwkSDo1zuf7bUsC18XrbJiQ3W/cDOFiTNxRNqMimlcPKBx/APBjmp55t98Hz6v+iVQIhyT++cq8UktmPBejeY01aHnbSv0aoAtU2K2M8QdqB+iMRAdGp1dyS5qDGzewc067aGy4H4wLVWzmW3QQvqAlzNuU661whfzH2c2D8SZngE6zClcrYoCOE8igZfyRASUlsxHgXS0K08dVAD2Zjtd2pGdGmngtCO9RZkfScq2j5xvK9FWRomHLOK8A/FaFywRsi+rm27zq8lRReND4oGV8m133hz0sBMIKLWHe6jWwoOR57/+cMbh/ZC1A7/Nqk4HPxnTTexMMr46USd7OGV8Aw3X9+KFuq8pwVkOQ3LxFzHK9ClwZ+FlMN129DlVh342OV547fXpTbJrTQG+hG3lHhkCfieo9d7qVrwW5vGU8SICSEeBEYnE00T1pqs9U8VJCkFdfmH9cQ0vhlakaPdY6BvIRMZZqbd/6sgp9QenI5ebGWjjikOTiUm0S4VPRhHl3qXK1tH5o95wTC7IhQ0BMRVxjw5GZM07xPtJBCUGcgOyc8SuwmntxEvSZaHv1/TXl/jOjg6KwFuAPTHWTpcQn4h3uG5tN1U6lrxvcnb6GJd+hxE/CRi1hvleFLmUEyfenridBrturvCUYxiYtaap78FWB1BR17Nz59tZ4w7Dzn2RxMRGn31VUzzjdS+r+srPGRpCaN4Is+YZYh5qPq+oIkus8n1g8pmqnCwWcFUTvKVX+HqqHnz912pDWej8zPngM/Vdquqmkr7EfMQSp87VdxjsiETytyiaTvCCmoEeA448ygjBfFhnM9bwI4ARFgVZ1Wjez0WRbWEuES47Ag/kjWjKjZP6FIqzLqsa2jJsAeJpGe0gAO6OJ9MlED6rp7asSGS+11Yf7wUBvTDdTKv0LWtcf/vD2xrknD91PoEvfsE34sJYwfxq0L5VsL28ZzsN5pxIfiX6sJXpcNb84mn1l/0Ec5XnL6CLA9SyGwx0k4Oqobn5fCXBlUsKMyFDOuJ+BvxJEy1oTPUrmqZQpHOVmBy3jKgaUPYcxcHlMN52eAkoupQTZseOklpnT4r3MOFmFdwx+MqZnzlGhq5w6mEF2zrhM5caVMx6VtvNW6glyV2dzhBtEePGVfQOds2a9pGy0nFKCOB4PWqk72P1gySOCFkRXtCZ67lO5KaGuykBgKJdeJpnvVeUNge+M6hmXE3+P7oVygthWeiHArocmHuFmFb/yVbXxtapH5avdAxjR+zW95xcq8VJOEMc52zK2AEoGwY/HKpkvPbSuWyUAoa7yIDCQTS0RRA8ptN6t6aabrpjHdMEXggxaxk2s7rWd0+dmg6Znin54Uwh2qMpnBGwrtR6gRarMEHBzVDevU6XvoB5fCDKQ7VwgSCgd6czM18SSme+oBiDUFzwC+Wzq00SkNDFTsjwnnux9UnU0vhBk4jbr390k7h0jwJ0NLN41Ldn9nGoQQn3BIbAvO++MMZJOzYeqD8qO849oujnl/LdSovWNIEO7U0ukVHqP6cRV9ZOTStmcWlzrZTjQZHgIwZe2tr/Ze0wlbr4RZPy/iMIEtINBM/GyWCITfmxTeQoC0pXPpZYSk9pX9j6/5fSXIP3pZRDq3nNP7GN3YYTOnz6rR0n9SUBno+7NjJcnN7MzZGieUjAkXaF1+PedzFeCOEDkLeNxctdsbVIcmXF3LGl+SinQoTJfEchnjbuI8EmVRhjYHNNNX3uU+U6QAcv4qACcuXtKr7AKTymcviobzBmfZMZdqo1I4Mq4zyUDvhNk/FnEMp4B8OcqARofMcDioniyW/mrPZV+1rsup29ahOSjDGiKsfi9ppue56gX8ykQgqjO2DwYFIGfHARdpOumXSzQ8PfgEbAsQ4uCH3XZ9PuYDgeV6R0IQcafRbLGuqMWD3nct/B5xCOAPor78dzhuMuMh2NJc4mPrr+hOjCCvNafemdEYDNAEdWB1VuDZ9X4+aFv0Epdz1DUo+AtDnKhIHHu9I7M7/zw+3CdgRFk/L+IZawiQHm+zHhQjGu1pHl7EKCFNo6NgJ01loPgS+tUBm6K6eb1Qe1BoATZs2d2vHmsaTPI1SzyopgI8NJWPaOsorGowXDBEQioHA1+hHLGlpGG0XPb2rYNBAV9oARxgrKzxodA+IlfAbLk+bGOTLdf+kO9kyOQ70/NI0FOqYM/F+PDWjLYev7ACXLgVsv9nL6pIK/pZlnimopvtbzGtgz2Kz4GrY3pPW4Hn7p2qywHyc7OOxMkncqv4117XkRQRBpmtbY9+5Jf+kO9byLgzHCUhbEdPmKyCywWasnuZ320cVTVZSHI+K2WP3labwlSslwQT/Y+FTSo9WRvINt5tiDh78dan/OtjrVfZSPIxK3WV51XtH4eKAa6Yrr5oJ826lV33jIuI0BZi52j4ei8Ko6VcfR1WQkyTpKs8RAR/P3oQ7RcS9TnUBq/yGvn0p8Hs6+v1ZmxLpY032y651cwx9BbdoLs3dV5amNEOM8jc/2M3/niPkxYEaaleEPZSR9pYdyiOjP3KF717S/Ihccd3/snbx57ky47QRz3B63UxQxySnR9vZzcrQJHVoQJju5gPpB4WLjFj9yqwz0i8AeieuYRd56qk6oIgow/tGdTK0Dk+1RXJwsYhBX1PrCm1CPkpKw749F8yMo90hXmL2rJjJJRbKXGeSRRvWpQKG9b6X8G+LMKVU6qyrnlkqN0fViZeGy0nUpA0cSrArilmnCEvqnpPZ8L4gxMxUbF/Ac56KydS90LpmVTcV7Bmm4mXhXWuB8dyYkacifvSW2Z7GQbR3yflshcoWBflamoOIKM327ljI2+zB+fHLYfNLBYFbYUOgDQRGsehxhXKjtpxRQRNmmJypsqVpEEOfBMYmwBBfSX68Dm7WTmVfXenG6iqZtDDpV9q45ND0a3llTfNrQYJ6fye8USZJwklpEFoE8lEHVreINkfL/eegEf6JWLq1S2A53inliabianuDbwZRVNkAmS+JYAd0y0GZuEoDW1PnphfASB5KtVDdAs9QRXemJpxRPEATxvGc8RcHqp4KtY7wzxEaA11T7p6nAsnD4BEny1quE1pWLNwPaYbp5RqlzQ66uCIBMP7srmsLsB2ZmZSMC6QgEPV+v03YlpspcwsETZTEA3YCqcY+7GfCkyVUOQ8f8kWeO7RPh4KQH6spaxiSK0jrD/4db2rS/7YkOR0qHdc05kNF7CBV5SrtuoQ0Nhxj2xpPkJReH5rqaqCDLxn+RWp/7cd2SmYICBvAB+ycB/gfkPuaHhx0877U/7piDq25Lnnz91WqK15TwQ/RkBb5fA+wiI+WawFMWE27SE+YVSRMq9tuoIMvFM4l/zBy87whh1yEICTxLhcTEW2dLSsWW7F5XFZIf7558uGwrzmXEeSyxwSAFCUzG5oH8PutmCqviqkiDj/0kCyt1SAPR+MPoY6BNEvcyyT0JsR0Tsof3De7SObXuIII9mhxnC7p/dxo0tbSjINgF5OpGYK5k7ycl+pvEM6EYFPvqrooJyq0oNtGoJ4gQ6kQXs1CT4mipfKqglryfsZYlXCNjjyDLQRgIzwTiuZF2VJdBH4OWVkJXrFpaqJogTtFNP0iDE7b4XXblFuE7lnGKnMSmXl7uewyv8VU+QgwDkrbTv5btewa4X+XKXyarEuWYIMv5ccqARhNPRz7duKSrBr0FduyDpWj8H2gSNWU0R5MDD+7wzmfg6Al8eNJj1bM/pW0VMN5WjNY+fuNccQQ6CNd7BEVjpV5tTPzelqnQznE6Kq4PueBgURjVLEAdApxdwU6FpJYFX+tFVPqhNqkw7XGDQ6tHI6Ooge+UGjUVNE+QgmM7oBUG00o/5JEFvWCXYc+ZzSObVQY0gKGfMdUGQgwBPTLpyBkkqHQdXzg0M2PbvCbi71jKbj4VhXRHkIBDOYFFnhJfq6bsBH9bAzDnTZBlY4/fAzMACKsFQXRLkjQd557Uwla9YqIR9Ks9SxiYwraml17alAlnXBDkI1tDu1BIp6WMALi4VwBpd/4gQ/L3W9sy6Go1vymGFBDkEqoFs54IIiUWvZ+QuDqzVzZS3yveF3a9nAq8vsNwQT/b6263d91DUGQgJMgmWtpVeSJCLQLSYGSerg7xyNBHhRTCvZ4gNmt7j9EcOr8MQCAlS5Ejs2HFSy4zm+GIiWgTm9wLoqPJT1A+iXzHzhldHBtbPmvXScJXH46v7IUFKgJd/fUHDoLH7L5jk+WCcT4RzShAv21JmPAHCb4jFb6K/uvFnAAABTUlEQVRm+3/Sux8bK5szVWY4JIiHDRt4qbOtoUlcWGB+jyC6kMvUeeXwEAjYLpk3RYg2jo3KTfGTesfrTMKrdARCgpSO2aQSAwOdbRhumAuScwUwh4G5RJgDHi/oalBoylE1BkIfM7YS0CeBrWDRh5axvng8JIQqrEOCqEKyiJ5Xs/POiDCfIgQ3Q3AzSTRLiGlE3EyMZsk8jQjNjhpmjAiifUwYYaYRAbmPBUYgaURKGikQvTAj2f1cQK7XtZmQIHW9/WHwxRAICVIMofD3ukYgJEhdb38YfDEEQoIUQyj8va4RCAlS19sfBl8MgZAgxRAKf69rBEKC1PX2h8EXQyAkSDGEwt/rGoGQIHW9/WHwxRAICVIMofD3ukYgJEhdb38YfDEEQoIUQyj8va4RCAlS19sfBl8MgZAgxRAKf69rBEKC1PX2h8EXQ+D/AzVV6G791VZAAAAAAElFTkSuQmCC;" parent="1" vertex="1">
          <mxGeometry x="-358" y="498.5" width="49" height="49" as="geometry" />
        </mxCell>
        <mxCell id="oiUiUNXv8FLWz6BhB0Yb-69" value="以QA的方式&lt;span style=&quot;background-color: initial;&quot;&gt;抽取25项&lt;/span&gt;&lt;div&gt;&lt;span style=&quot;background-color: initial;&quot;&gt;质量设计要求&lt;/span&gt;&lt;/div&gt;" style="text;html=1;align=center;verticalAlign=middle;resizable=0;points=[];autosize=1;strokeColor=none;fillColor=none;" parent="1" vertex="1">
          <mxGeometry x="-353" y="435.5" width="133" height="41" as="geometry" />
        </mxCell>
        <mxCell id="oiUiUNXv8FLWz6BhB0Yb-72" style="edgeStyle=orthogonalEdgeStyle;rounded=0;orthogonalLoop=1;jettySize=auto;html=1;strokeColor=#FFB570;strokeWidth=2;entryX=0;entryY=0.5;entryDx=0;entryDy=0;" parent="1" target="oiUiUNXv8FLWz6BhB0Yb-25" edge="1">
          <mxGeometry relative="1" as="geometry">
            <mxPoint x="-321" y="571" as="targetPoint" />
            <mxPoint x="-270" y="523" as="sourcePoint" />
          </mxGeometry>
        </mxCell>
        <mxCell id="oiUiUNXv8FLWz6BhB0Yb-82" style="edgeStyle=orthogonalEdgeStyle;rounded=0;orthogonalLoop=1;jettySize=auto;html=1;entryX=1;entryY=0.5;entryDx=0;entryDy=0;fillColor=#ffe6cc;strokeColor=#ffb670;strokeWidth=2;" parent="1" source="oiUiUNXv8FLWz6BhB0Yb-74" target="oiUiUNXv8FLWz6BhB0Yb-83" edge="1">
          <mxGeometry relative="1" as="geometry">
            <mxPoint x="27" y="657.5" as="targetPoint" />
          </mxGeometry>
        </mxCell>
        <mxCell id="oiUiUNXv8FLWz6BhB0Yb-74" value="LLM" style="shape=image;imageAspect=0;aspect=fixed;verticalLabelPosition=bottom;verticalAlign=top;image=data:image/png,iVBORw0KGgoAAAANSUhEUgAAAMgAAADICAYAAACtWK6eAAAAAXNSR0IArs4c6QAAIABJREFUeF7tXXmcHFW1/k71TEiCGFAE0eeCgsiS6eoEBXFBREUgSVcnBEEEVB4CEhaBQNhMgLA+9h0EF1Ylkq4OSBQVwQUfaNLVYX+IIIJA2JEkZGa6zptb3QMzyUzXvbduVXfP1P395q85995zz62v73bOdwhpSS2QWmBYC1Bqm9QCqQWGt0AKkPTrSC3QwAIpQNLPI7VACpD0G0gtoGeBdAXRs1taa5RYIAXIKJnodJh6FkgBome3tNYosUAKkFEy0ekw9SyQAkTPbmmtUWKBFCCjZKLTYepZIAWInt3SWqPEAilARslEp8PUs0AKED27pbVGiQVSgIySiU6HqWeBFCB6dktrjRILpAAZJROdDlPPAilA9OyW1holFkgBMkomOh2mngVSgOjZLa01SiyQAsTwRHPXtC1gWZu83axlvQWi12BZr9FfFzxvuLu0uZgtkAJE08A8efom8Ktbg2ED1kQwbw3CZInmXgfwJICnAHoSzEvB1t20bOEzEnVTkYQtkAJE0uDc9dV1QeP2BLAniLYHsL5kVVmxxwG+G6A7yHNd2UqpXLwWSAESYl/OOl8F+NsAHBCNjXc63m59pQAK2P8FVUo/T6jPtJshLJACZAij8BbT1sO4zOEADgH4g03+cp4D0cUY89bldN/iN5qsy6jrPgXIgCnnyVPHw88cD4YAx7tb7GtYAdBFyPSeTktuW9liuo1YdVKA1KeWc87eYPqfFlgxwj62Z0A4ksrurWGC6f+jW2DUA4RzM98H9FwPxi7RzZloC78BWQdSeeE/E+11lHU2qgHCduErAF8PYOM2nff/gHAolV0xhrTEYIFRCRCeOTODx3vOADAbQPvbgLAQY1Z/Oz3Em0dI+38cijYJtlTcI94ZdlCs2uriT4Oru1HltodaXdF20m9UAYQnOx9HFXcB+LDxSWIWLiXLATwL8CsgegHMzwHUG/TFvA6IugDx8o4PGO+/1uAb8HkKLSv9Mab2R12zowYgPDE/ERkS4NjQ0CyLq9a7QLgTRL+lpcVHZNsNVjHqnQzfnwRYXwZ4J9m6UnKMr1PFvUVKNhVqaIFRARC2Z2wOVP8M4H0Rv4c3wPghLLqNysV7Irb1dnXebtd3o3udfN/qcyAYnzfSLvNRVCldYKStUdzIiAcIZ6d8ENRxb8Rt1csAnY1V1SvpsUX/ifN74UmFLeHzSQC+EbkfxiUAd4KsjQHeYPgLCfIBvAb4LwHWiyB+BUwvAfQSMvQELbn10ci6tGkDIxogwS/z6rH3Arx1hPm5EJnOebRkgfDCTazU3OYz8wHeI7FOh+/oBYD+COZ7kPH/QEsXLWsBnRJRYWQDJOv8FoSdNS35ILi6V7NvhTg3bVvAOt/Y1kvTGGtUewOE38KnG7HBhDvo7p+8ZabZ1mtlxAKEbUfsv4/UMzmdS15RvJG0TGG7cCLA81tGoXcUWQXQjeCeeVS5/dkW1C+SSiMSIJxzdgXjDi3LMB1AleKPtOrGXIlzzs5g/DbmbvSbF2eeMZ1njKTIyREHEO4qbASL/w/ABOWZZv4OVUo/Vq6XQAXO5beCj2vrwVoJ9KjZhXgPsuhcrPTPiftCQ1NDpWojDyC285O+kNb9laxQE/42ea6o21Kl7oJ/GhhHtZRi4cq8DMJB7e51PKIAwnZ+B4DEe4dKYRB/i8ql61QqJSHLdmFm30p4QRu44DcwB/8Q629weLse5EcYQAoVgIU7h3xpwQc1tp2PgvkKEH1NfiAtLfkwMr270pLbn25pLYdQbsQAJIgdJ/xacQJuIs/dR7FObOK81cwxWKfnOPh8QoLx77GNZ42GX6r7id2XVIcm+hlJAFF886CHyCtuY8KIJtpge/rugH8RgI+baE+iDeERsBzg5+sOlZ0AtgDwXom6+iJEe1O5+DP9BpKtOSIAwl3TJ8HylyiZjqvbNPsRUOjLk2d8EtXqxQC+oqS/vPBzwZU38V2w6DF083J6sPSv4arz1jPfg0y34PjaCpaV63s9F46Un5DvTkaSDySvdI2MZLNlRgZAsvmbQbSXgjFPIM89U0HeuChPnjkBvd2ngkgQRJgubwSRkj6up2WlyFsa/tTM96OndwbA4uF1MzPK0rfIK/7UTFvxtdL2AAkYDqv+vxVM9DB5bhTfLIWuhhblrDMLhFMBCAdCk+VJgM8lr3S5yUYHtsXZwhRYPMtMDD99k7zijXHpaqLd9geI7czr26nMlTcGf5a8kvDuTbxwV+FLsFh8vGKvb7LcD8Z5ScaABA+XTCdG9jom+qLJ0AGTRhVttTVAeKuZ78KYnr9Lky4QFlLZnWHaiGHt1SIZA0qhQpis0v8ZS/qmcB5Vircr1TMoXAe98D7QjdJ8FWTlWpWdpe0AEmypeqtfA1m7AfxlJY5c3/8kLVv0mMHvo2FTwTmj2nsSwMcY7vNhEM+lcukXhtvVai7gLc6MvxiM72g1QHgAVnX7ViTEawuA1OI61hH8uN+qx3SrzwPhNiq709Qr6tXgXOFgMItzRtQoxgEKkPCWPa5V9+2cc2aAIRw9NVgp6cfkFfUApjdFUrVaGiD1OPJZYN4v+sMZ705eSc/DV8qUNSHOTtsJlnURGBMVqoWJCpfy07H+hPNa3WUj8AIQsfrApmGDWuv/jF2o4t6pXC/GCi0JEJ40fXuwP8/MTUlgvefIc+NiEqkBo8aYcm7AAm+00HXI0BxasvA5o83G2Bjnpn8EzH9W9iEj/AurO7eihxe8GaN6Sk23FEBiAEb9Z52vpErpECXLSAoH7vXknwKigyWrSIrxn2HREbTUVXsAlWw9bjHumroprIxwHH0n25ZMpxzfXMl0v6ZMSwCk9pbBF8cWf03YjcruYh0DDVcnOJha40XUofgbb7DtZ0A0u53cMYa1UY2A4k8A3qNkHyKbysWKUp2YhJsOELbzx4irSgDrxjRGYAxtSPcXXzbVPmfzB4HoNLMH8EC7eVh//bNb/ZyhYkee5EyGD0FkN066HuEuKru6XALS3cgINg0gdToecX8vmAbjK8zPU6WktswPo00tRQIEMEw7FN4E3zpupOYpZLswG+Bz1CY5mUuVMJ2aAhC2HRvMi0H0/jAFDfz/HvLcL0ZphydP3RDVjAio2jVKO2vXpWWAf0izXvbNjqVxa2w7HoCsQp9l8txJCvKxiCYOEM7mdwGReOB6VywjWrvRW8hzv67bV32l+6vyYbNxhy+CaU6rkkPo2qpRPbanfwrw71dq27cm07KFS5XqGBZOFCCcdb4JQtK5LK4mzz1I125sO2JSP6Vbf4hV4wKsqs4dCYQGqjbhrHMxCIcp1LuCPPd7CvLGRRMDCGed74JwlfERhDXIfDFVSkeEiQ31/+DRjyzx6GWgUBEZnk1L3CcMNCbVBH9m5jis7DkgyN9O2ATMTwPWPc16ia/7zglXH9k3qdfJc02n25ayXb9QIgDhXOFwMItouajlCYDmAv4mgHD+kyoXkedqEcix7QjP26jvJ4/0cd0eTuVSonxWbDviR+EEAButZSXm52HRqVR2r5CyoEEh5W+Bea9mpsKOHSD1K9ErI9lYTCgwr+82KliBFFejC8lzv6/TP9uFewD+gk7dIFcH6ATyipdp1teqxrlp08CWeNHfXKKBB+HTEbSsaGiVDO8xiFjs7FG5cr+BPHff8JbjkYgVIMHLuO+Lh6KMpvpVMC7E+M6T6S8LVvW3wbn8fmCSjUaLABBHbAdUw017Ab4KPWN+QA8teEVz3MrVODt1ayBzkSYXcQlV6yh6YOE/lDvWqMBqEaCvw3M3IIA1uopcJTaA1BkOHxhyiZdT20OV96MHSqKNQaXGF8WSCWLoAvKKWqRrbDtPAfiInLpiacPv0JGZlWS6gOAK2u+YD+b/jvBDJIbY3Rc6cCFW+fPjvkBQp1BtXpBbfACJcvtDdDaVi3OG+zDrDCByQUKE86nsHi39kQ8QVADI/wHWUeQt/KVOP7p1OFs4SsSF6LmXD9vri2A+Lm4KVrYdcVnxMamxE35AZVc80CZeYgEI2444FOtlN5IgclPiwKqFomoFLEkBhPBzKrsqhBGRJ5ntQh7g86U/ML0ePTAdRpWi2CIbL5zNXyRNWMG4lSpuU/KkGAdIfWslfh3UHwKJ95ehAGXbES/jv5eatbgBwnxw/+WBlD4RhDhXyNZvA3eM0Ixq1VtA1rGmQ2I55+wLhizd6xPkuYbYVNSGbx4gWecaEA5QUyOQLpDnivTMoUWJgzdugCB++prgRyfDZ2qHtIZaVEKA+Szwqvm07M4VEtKhIvVUcw+HCvYLdHeu14w4EaMA4ey0HMjScA3gfcgr3SRrLO7KbweL/ldS/hzy3OMkZQeJse2IW52QyDg13VX14FxhDphPNuxSr6pGv7zIX3iMzCov0wHbjmB3lNtpMLajiqvmqiKjRIiMWYDY+dsB2l1JL8J+VHaV3E8463waBElCNP1sUWw7TwIQIaQNCu1JXnGB0pglhDlX2AviV1vlFk2iXSMigk2F+dCopHR9W+W7+7bKcttF8vNUXrTIiP4KjRgDSH1/LDw2Vcop5LkiFkSpBHn72BIOhOEl5EasUQNsO4JSqLFru+GJq8VPCK8D+mz44BpKPAHCKVjpuxif+RiYxbuRijdtePfMP0MVxzaiMm1s34KgQpK7QJE8n4YrrSZhDiB2/haARD4L2XIfee72ssID5ZS2ctEAInEVaSZuoc4QKWImvqljkwF1XgXo5KFe8NkuHAiwoFw1S1BNmA+reqYqbY+S24nE7WZEuw1Z3QhA2J6xOVAVr86y7a1A1erSfbkN4kmAsqRBopxBwrdYxF+J4mfFm+26Dt419hiAj48YVdnT9yh7Oao9p9ADv3x1ONsEXF1+z3xw4GOm6+EwVPPPAXQ8vOJ1sq/ebOe/B5CcKw5hPpVdcRZLtMh+0A2V4pxzCRizpDVnHEQV92pp+TUE63RAcrm6415ByN+Ryov+oDMWzuX3AJPwm5J/rR+qI8JtsPB9FU/hwDXFylxhPL20OJ+QdQR5C0MzfXHOOQAMOZb3CLeROnPTXycyQHjydztRXb5cgeHwMfLcT0ZRWgkgzGdRpSR+nZWL1C2WZX2Gli6UvVELdAg+TrKuMnDO8ODzwVEOy5x19gThPAD/pWygxhVC30/6HmIFEaBs0tQzyXOFd3KiJTpAaq+6Uu8Xwch8nkbLSrdFGWXtA8s8KNVG3ABRiHqrhe5aZwAk3oksKf2HXjFEfo8TUXZvkN3ONOoriBtZ1SMCmcR1uBoDScOG+a0AfP6qM4d6P2G7sA/AN0jZgWgulYuCqTLREh0gWecXIMgSQmsfzAdapZ505hE5S9EZ5BUFC7lykfIXkkzEUz+QiglWT0/9juYrATojLobFgOL1rTFHC9ohJRaSMMvWwhVOWNO/S9Hp9FjyirIxQGEaSf8/EkDYdkS017AHwrW0iHig7W+vfikgcqFLFD6dvNJJEoJriUhd81r+5rR0kbgOHrJwV34qLBJbGJn4jBA1M58g79bHdcaiUodz0z4An85TTEok00UZTIf3+3cphS0wDqOKe6lMJyZlogEkm/86iOTyzRH+RWVXlyJ/0Jh50rTN4FuSH0rMAMn0fmSo7K3BKudXLzRInwoobOdMfCTclf88LBJRlYZzOfICEF0FDpII7SClK/HMZrDZRwOI7YgrOsmgev4f8krHShkjRKjOgzvsr/bg6jFvsTLWBwby5g5IrSbs0mFivAPaWN3n2n4+/JWnm/KJCtOPMddC1jsQRPMBbBgmH9v/fd4+ymWErl7RAJJzlkmzmBukk6zzvspGv2nffkidQeqsjTxzZgaP9x4M8CnGH+LWnt3nQDjO1CFd5uPhLaath7HWXBBETkWRETfZssYPUVKdawOknrPjdUlFjbor8+QpH0a1459yfUdaQcJdTdZZPQGrxm4bU2q1sCHeB/JnUXnR38IETf0/OP9R9TwwpppqU6Yd8lztb1Wm/eFktDtViuoDLyCvtGcURQfWbSmAAMJleytTY9Ns56fw6VhaVhTvUYmUOgGgODQnEafxOHmuKjeAETtEAEjhRIDFvlSmaDklDtdwglus8BVEZvSNZcRH/VaEHH/9ra8UGa2oUjo7ukryLdSvr8W2Mj7+qiZEbfZbQB8gOeda6QAextdNZmBVusWK29VE/ltaU/JVEJ2D1R2XikCgOl2PcFaMmgH3H2CaTZXiQn3V1GrypwvvxWoW5xMV1kSFTqgpbyBCQX2AqHBGVblrKHYSBQsNEuWuaVvAsh6VrB/FWVGN1UROoddAOB+rOy9YM0LO6EFfMKxQ5pAk3k36hx3cLvo4B4zpcqaQlPJp5yS5uwZqFQEgjnB3kPPfqfa8p5GHqaSZ3hZTCteMtoKIiwAjbzcARPTc+Vhn9fl03+I3Go05eIAVbwQmfpEZl0Cwgnjua6p21pXnXOEz9dh5M5zGmc71ackC2QshXbWHrBcFINJEXqZvIJR8sYAIK0jhGeU8e2ubeQWILkVv99mqPxIGb4xeqrM8/tDo1xPSWD0qUriHyP2QDt3eK+S5ZuNXFIygBRCeuPsGyHTKsga+Sp5rzgFOeMNOzE9ERuTWkCoRAOL8O2Lagxvg09FRb5fYLnwFYMGjGzVxTwWwDpVxRZeyrIRQnUD77EirIeEbVHZvlujOuIgeQLJTPgjqeEZSmxfIc40mykkwYEo42W0sOc4BYvQQQAeZ/hA565wECjJcRSuMW1Hl7+uGyup0Xndb+Ykml9cKIJNL8jzVP0Y9gHxq5vvR0yOblvg18twNdIw6XJ163jvJx7FIpA0vKrpXrOjjH51HXkkEQcVSeJv8h5ChCxQ8qIfXQ4TKTlj/9KRyItbd6oVvl4gDUSz0ENafsG1SukYDiHA7GGc1PGgOGP0K8lw5ahdJkyllK4oQica2I1jIZbeHNyBjHZtUPvM6u6TYdsnRdw5v28Sz6nKucJagN5Wc7nfEGNdSxRUcxIkVrRVEaMe2IwjE5NIfZ6rrqgb0N7JAnTX+L1JWigYQcfMTHr+RILvimmPmnHMaGFru/Gu0dS9867CkUp6xrfTQ/I6qCZ9HogDkIWkXi0xmS5OM50rMitHIq8UquV5DIDaRN7ZfL7YdcWFiaBtLP4aPOVEvFmR+vDhX+AE4cO5UKf/BGNrUZFrvRp1HAcgd0llfCbtR2V2sYoWGK0gtTkGSKCFS+gOJVTIe4jgVW3HOeRqMD6nUCZFd2eeqP588V1AExVrYLpwPsGKCI/05VR2MPkBU2LlFdijPVf2lGHYsnCvsCGbByhdeoqwg2fwqEI1t2AnRDlQuym33wrXVkmDbMfmgOVCHRNxWWIeRE9iUPFd4OsRa9AGixkhxJ3nuLqZGwl2FL8Hi38m1p/9rw7Yj8RhqfZq8hXIsj3IKK0uxbeRBc/h+Y04MFHgOEERskcoqmEhqNn2ATJrWBd+qSM6m0ZsszuW/DKbfSPYdJYmnBECQI89VpVyVVF1OLHaAvKPG5ejpPDmO1HJKFy/9+hgMwhvO0toAEQ2y7Yi96jipaWT+GlVKv5aSDRGqPzpJnkFwB8Z17jEwx6GsDlIriCSriWyfOnIJAkSoNyy1qY7uA+tonEd+2rfN0nhTkdc0KkBEyrHdpLojXEpl14g7tKKriVBPPGqeQJ4rXnKlixxAaAuqFCUZVqS7VhKUAwj9AauqUzCODgNIXAvL/bANr4nx9NY8eep4VDMiAE2OaZL5LYzt3jjM+VPJmGsIRwRI4VCAZalYjPlkBcQI1R4N71R6CFw9jCqLpLJTSQEkhPYnyuTI1mXbeRbABxrKE35NZfdrwco/efomqPritf8bsn0ML0dFUFWE/Qq/tciFc87eYEjnigH4QPJKcvSlGtpFA0jX1E1hZWTJEwDm75hKDsm2I35pttQYs6jiIoNjwrhspQBStT6uS8Ktqfta1diWcqpcTJ47aLXn3LQvgC3xGh81ZPglEO9I5ZJ8xqgGg2fbEZROkqG8/GfySp8zZcs124kEkODXKOv8DYTJUgoSHqCy2yUlGyLE2fxxfVewIsFMlHIhMp3zhoo14C9+ayxee+3t3OwNOknkurHRIOW2WPxL8kpThmqnzrIuwqejPDYuR6/fRQ8ueiHKhATflF3YH2D57XCMq7gJgMwC4RJpoxgMv2XbudHANuElMB+7Fi1m11fXhTX+zdBxDUMcF1rPoIDUFgu4gzx32OxfvPXM96Cz92wgyLeuWWjWUHlJdBpj2xGMnXJx7kxHU6Uosv4aL9EBohYbIrZZj1KlpLs1Wnt7kS18LqDcYUyMaB0PlnVIP1N7wAMl45DZNgAZfgUZaDfuKmwDK4g90di20HXkFfePOA9BdbYdkUZcpBOXKFQkr2g2zLfea2SA1AcjDlV7S4ykX+T75LkXKsiHinI2f5Ah9r+bQf4x6FjHl3Tpb/st1tDbrsJMEAv+K4XHO3PnAVZ7Z1tOnqsRtxP6WemTNgz61anl71Z5LFsJ39qCli2UDboKH0ntV8dULPcbYP53H+9weB6T1jikh99iAbeT5yqRvdXPYcItXTaPpFH+KiUfM47nut3IChKsIjlnkSLb3t3kuTtJffmKQpwtfALE4lz0VcWqGuLJMK43UkzuDEKLyCvmNQYofnhkPAoESc6z5BWjxJ8PUo9zhSvBfJCUzkwHUKX4IylZBSFzAAmys0Iyyq9/g0dnU7k4R0FfJdF66oGLwnOdKzU7WNiwK7+OJq0DELxInruRzhiG3eaBb5Frj35MXvE7crLyUsYAormK9HE904y4Sc44WzgKxHP7aHfeLW8aSUnLz9LSRbIEEpKNqonJAQSlPp8xR63lmrT8CgKzPndq/GcV8lyR3NVoMQwQ5bOIGMwKZDLbmgyoGvLXaJtpG6PDEu8mZn13LGxLS90lRmdFsbEWAgiMUzxJb+/wBnluePSnom2NAqT+a6PzNvEqwFPIK92rqL+yOHdNnwTLF+cTucQtYT1EyHIb1rTs//tu8J4DURhzTBIriHmAqKTYADYwTZBnHiCCp7WbRTiuxrVbctF5bOe/AYZIMxb2YTX+TpkfhUXnUtm9VvaDNinH2fy3QSRxONV/K1DYYsUBkN+B8SUpmxmmuBV9GgdIbRXJ7waQ8PTVKcLrNvZQz0BP4T3qZ443QnpAWAqyDlVNCa1joEB3cbUOFvnpPy/XRtsC5GdgfF1ujNbnTHORxQKQ+gTKX9GtNXpegHFj9teJ4ZAz5GApzk3/CNgXzOrRc5gwrkeHdVxc9D/cVdgIGT5Tmlm/f6iEhVR2ZbMRDzJQU1cQ27kKwHel5pWxC1XcO6VkJYXiA0jN2U9EHGomPqGHkOF8mMet5DilxNie/llw9RqpB8LGLQoCuTPwZvd59PfFIq9g5MKTv9uJ3heOApFIad2YaWWo3qIBRIxhjMwgjB/Ss841IIi88uGFsAeV3VvDBeUlYgNIsIrU/HoekFdnLcnXBcEYVUriVySxUvduFdu8qNfCT4F5Tp/v2c+jKM/ZwnQQCxJofZK4CPRETV1BVPLQgBzyiqUotl6zbqwACUBiO8f3/fqcEVHpMmAJrtvEyBEC79aO7tNBdHBE3cVJ7y74dIhq5CF35beDhfMA+mxkHdoVINn8zdL52mPIIxI/QHLODDB+EXmCgwaSIzXr17eeakFETX4x8hiYz8IGG5wSxi9bS3MtYl14j8h9vt2Afp7Ipq4gtiOiP+VsH0Me+SQAYooas3+q/wOmeXH5/w/3QXIuvweYzoucUIfwLzAO73v1ddfsi2uPmadKH0rV0HMLea7kbdDghpsKkGz+EekzYQabmT6zJgEQ+XtstQl/EuQfSeVFi9Sq6UsH3q2vvzY7yP4UtTD/CkSHCPIzFsFZmfFzwDhKmu9Yuf+2XUEk2C1rxjB9QRC0qWxnxQpsOyL1mFF29zVUWAxkjkgydwR3Tf8vWL7IJhud9IDwR3AQsixHBK5o/7fFI2SKbdYKUttqQmQalilPkeduKiOoIhMrQILHLLU4ERXdB8r2BGG/K/159NgiAchESnAtDL4K4K0T6TBKJ9EAItJUryPVfWajMbTk6h4p2RAhzjp7giB3A8j4HVXcL5vod2AbcQNkLzAnmTrrRfEqThX3atOGatRePZrxdABNyKVHRYBFssywOIybyHP30bEL246IzV9Xpq7JbQ7b+XMAmi3Tbx/hhDaDZqP24wWIGeYRSfsMEvPAdBhVin/SqaxTJ8jbaHWcYeRaOFwBwQl2Bbj3Mqrc/izbjgyBXxSANOUcwHbhQenVmWhvKhd/Fm46NYl4AWI7lwH4nppKJqV5ASgzm8oLBft5IoUnz/gkqtUrAewYQ4fdAF2GavdpAzPmsu3cBmBISp8BOtxMnqt1ZlJKlvTm6rEmvAc4N+0DYEuEEsuWWLgBYgZIoQTwNKkRMv8MJAgCDDyKrdkh4zR0VM8ymeUqbEz11+8bDFB81ruiRcjwUUNdY7JdWAhwobFOfCN5pW+G6T3U/1UuWkxtsfpof47oo/2RJfZ4jjy3MbOkzsDjvsVi2yn3sRhKRnnV0ghwLr8VmA4FsJ/h26/nQDyHyqXrNG2lVI1t50gwnxmaXyS81VAOXLYLCyQeFbXTBfSNRS4VncGrVradx+T9+OIJtxVTE/MKokAhSdZHB26F6m8D+8HnH0SO2Rj4EQq3dJ+OiOt8UqfzFFusqNxfglllHlVKgh+qYWHbETc9jT2RGddTxRU/OsqFbSc8FV3/Oue5kb8pzjm7giEymMmVGMO2Iw+m0QjYdkQGIDmm7vXXHzeUC0aN8ds6AQi8WA0Ws+cTDlJjd58LkNZN0eCB8WUYY82VzcPHdv6G8H71Sd2SXkE45/wKDPmES/7Kd9GyO8VFgvESN0AE4/cmElqHxhPXH41EqOyuEu3Jiwj/KF41P4qBg+0UIFLMRfT+pd/Dx+G0rPig/AACfuTrQNg3pI5IhYGVAAANvklEQVR2Lg0VGtCoZxD11Bb6dEYyNo4bIC9Jvg28TJ67oYzCbE/fHfAFlc/HZeQlZV4A4wf4ROe1tGBBVbKO+DA/DcKPDbCjPwnCbN1YBrYdoUMYGUV7AEQO7AOmyJpC3kLd6NXQqY4bIM9Lxqa/SZ6rFATEucIcMP/A3C1RYKtHwHwiVUrFhlvH7XZ9N1aPEdupA0Mt3FhAJAk9lcrFSCz1LBVUpH+QZduR/aGL5A/FajQ/wrJPk+fKbeE1JypugEjnUtdZms0mghlgQRG/UaUjhtrqcM7ZFwzBJC614g0/L3QdMjTHRGguS4WltgFAbOePaqTZfCJ5paixRg2hEzdApH35dQDSP7JaWmhcJv3qKv9r8hP41smCQ5jtGZuDqldKM2wM38ffYFmHmSR3YNu5HMAhITP9Iyq7cqGrazTEtrMcwPtkzKY7j2wXDgRYxUVI+Nx92DTNz5pjjBsg4deP/RoZoPDknHMYGCIRTMTD8iAzrQBoCcBfkPlAGsi8COJj4niHYTt/KRC8HQ1fGNdSxdXK/cG2I5LiyFCKriLPVfZKZtuxwfwXxTejM8lzT4g4J6HV4wVIzhG0NLNCtRACxDOpXIoceciTp26IaseZ0RLBSGksL0R0NqorTotyU9bw28/mLwLR4S0AkJXkuVJOjW+v/oKlxeL7AHxU3qBYCer8KJUXvKhQR0s0XoBkHfnsU8ynUqUk+HONlLqrvSB72M5Ig1qNiASX9P24fcHk0ifzD8krydHnrL3Fkl1BlC5bODfzfeCee5QfVYmOj3qxITud8QIkiJfw5TxqmX9FlZLZN45avrt9ABa3RGHu4LI2k5F7GOzPks2mK9NgwxVELk3A1eS5cqkE1gbIK5L5C1/vS4wklTYt4PeycJfGufEx8tzwvC1RjVqvHy9AZNOY9Q+mu3M9enhBeF5AjcGznT+m/hovNYEaXYgqL4NwMpVdkcIskVJ7we/9G8AfbNgh0VVULmoxtCg4K0ql+mbbEdspcYGjsq2qDY/9LyX1wyO6ixUgwXhUUvrGQPw18KOpJarsOS0WF3zGJfB75g50Q48bIZzNF/r81ITfV/gBOhpAJBPo4BXy3IZBY5zN7wIiQXCuHlxGOJ/K7tFx23Vg+0kA5HoAsm7W2h6nKkbjidM/BqsqOK/2Uqk3jOydsOhIWlp8xEBbUk0EV87cezGIviZVIfil4iupUmp8FTxMYwox6S+R5w55HRwkRR1rnQ7CYdI6Dxa8jzx3e8262tXiB0jO2RsMkeQzvDC/hQ7/Q7TkNvFyG3vh3LRtwZbwltXI6Iq/g/yjE2VVCVbA7lNDr3SHttzl5LmNr4KHqMdbzXwXxvTIxvkPmUzTQEiySAk9STDAxP5RrNFB/ACpbWtelh4YYT6V3ZOl5Q0I1oObBEvJZhLNvQGmUxLn5ao5RArXmg0kdBzqU7+MvJLclfuA2rXDNItbLJnyNkACQnDfPwAUEE9rpMIYqESy546BA40dIMHqbuf/pBAp+Bq6Oz8U12G90Sxz7VpaXDUP40ZC14A6Tkji/r1fz3qeRUFYt7nMFzq8DOsBpJYQVQQvyRXmU0EkokglA+XCmuVDySsJT4GmlGQAUnMsVMn5cVzfi6xIR5B4YeGI+NaY40H0TnJRkdLAt+bRAwv/kZRCAfE38YUg7GykT+ajZIKv1uyr7rEsHvKSL4zTqOKKVbNpJRmABFeRPc8pjPIFjOvcNKn8IEPpFZAG+NYUZPy7aOkiWfIyhSEOLVp/PBPuMlqPekO3GiF5jmp0X2QL9DfQ3JWjX4tEACI6YyUae1EBl1DFbew+YWwyWqMhrtEknWQ4Fl+b7qc2b4WDwZzYu04wEzFf96vMdnIAmVTYEj4/rKIcgJ3Ic+9WrNN24nVibLGlNEmduRzMh0fOTZIrnCVytCRk1H+D/SlUWSTIPlqiJAaQ4NfIdkQgvoo7idiWbRW3S3OzZiLwYgULT9zo+T8GDYKuQbX7WBOPlmznbwFoZuw2YixBhzXVRHyMSV2TBUgtBbNqTnFt2n6ThjLZVj3Ngfmc7dCLaW80NradJyJltpIz3CnkufPkRJOVShQgtVVEhoFjDSMY9vRN1sSDe6uHCot3HuW4iQZ6PwHQ0abTjwV0qplO4agYVxFb7n3Ic724OojabvIAyU75IKjjSQCdasrTLPKKgsq0LYuRPINrj/x1EE6DtdHFphjVB3bBuWnTwJbRnH/19l8M3ps267xahSSjGROfOEDqq4gKa/cAu9Ce5BUXNMNQun3WUrh1XALwTrptDFmP6CpYvSfF6ZbD5rmVBQHdZVjln5lkmooodm8OQERGJWv8Mr29LR9IXumaKINOom58kY3mzxnD2cPg+eOfIJwHq3ptkvzIJua5KQAJVpHagV280HZoDOQmjOv872Y+JA77UYl85v7yw8EQ54wJGmMbrsrfATrG9DljeHBM/xTg36+pv3CP/xuAO+DzYiyz/0o4xddsq6nVmgaQ2lYrSopoWga/16Flt4nzTEsUzk7bCWSJMN+IflODhvMmmOYm7xwpQQQx2OrCA/tOMBajo/qrOLd+SU52UwESgCTn/AGMz2sOWhCvnYUJE84JS62s2b5UtVoui4wgitAihx62kwTOGUP1zZ+ZOQ6rev6lENRUJs+dJGWsNhNqPkC2yX8IHbQ0IhHbMwDNIa8oItUSKzWX7qrITPtdRcqaxjqKxJ69fCg9UHogscEM6IjtwmyAFZxF2+NcqGPLpgMkWEVqWZkEq140tkLxGkt0CXnFn+oYQ7YO55ydwUFkXF62jpQc8/Ow6Cgqu0nmdRykWpB2whovMnLJhsSuRHfnxs0IT5CyaUShlgBIAJKar5YAiezENBr6i2C+Fh3VK2jJ7U9HtFFQnbsKXwL5+XqsgzrZQKgSdAYyvac3+5ZHMXGmcCrVJqQLNUkLCLQMQIKPcGJ+IjIkeJI0o+aGtKhIBPkXsPW/6LDupSW3Phpmd+6auinIsmFZEwHeFhzkGzTJ1viOCoTb0GsdmWSsyXDjr/mGQc1RkHhrKpdUnVDDpqBl/t9SAKn/Um8DiwWd/YdjtJKIcRZx1m+A8CoY4/ry4Qk6IPEXbZsnr/STAM8irySfSUm+bS1JzjlLwFA5bC8mz91Nq7M2qdRyAAlAYjviQxUv5sYTw7fAvBhJeWB6HMpbq2Cimhcrbnr8w7XXkgAJbI+5FnKVU8AQqddaVk/FiboJGeuYVnPprr/f3KU4lj+R5+pezyt21Tzxlv/w6qQFP0pw6xPHbDwMpoPiShwaRWG2gxfz3wFQSmAEy/qMyRQOUcYQZ92WB0iwmkyeOQHVHnEvbzBOO06zvt32K/X3mR8m0ptiJ3VCht8qgwMo9bmoO4rdtaV4WwCk37IB0ZtvXQnC5Daw9s3o6ZxFDy2IM55C2wz1dNXigkApXQGAV0H+NlReJBK0jvjSVgB5Byj5/cAkkqds0bIzRLQDlYt/aUX9+tJzi4SfIvGnRiEnKYdJDeWMV2lLgLwNFNsRy7w4xG9r3DKRG6SHBLMgLSs1h1NqGP05EgmDHvlcZFM2sYG2BsiAFeXLYGtfgAVg4nnQ054kug4+ZtOyosjz17TCk6ZvD98Xlx1baipxP3luE5MRaWodsdqIAMhAG7DtfBHg3cCYCqLEEq2EzMNK1OLqBf9voqVOECHoVLWY3evKvgjfmiSSmSaqfAt0NuIAMggsAfGyL7ZfNogmg5FT4J4SNKP/AOgpgEUuPLE66f769qv1MphvFGz3cW+9+NOF96LbPy5wqiQaG+Fbex1EO1K5WInQRttWHdEAMTkrNS/XdW8zGFv+eF9g1Y3w6dah8rHr6B7oSOOmgKxvACwIpKOWFX0OpDvHDeaoSsZZPwWIgnVZhNNWlwsXGLNu7sDyPuDd0/dL/XsQ3a2SjCcg2+5eJw/GjL5UyiJ7U5TVYqA13uxz8tyFvNK9CiYacaIpQDSmlO3CT41HDw7aG/JbIBKsks8C9DzY/zeIhINlvfB4gMR2bys94ovQQf8HRLu06jV1qPYGBVKAaBpTPepOs6Okq4mgLc7sTssWiijPUV9SgET4BIIgKotvrbvJR2ipRaqKiEyrc9ckEwS1yMiHVSMFSMQZqqc0FrHwO0RsqsnV6VzyirObrETLdZ8CxMCUsHDHt/MHACTeOd5joMkkm3gKsL5J3sI/J9lpu/SVAsTgTAVvD6v5AhD2NdhsXE2JW6ozsf4G5zeTMimuwZlqNwWIKUsOaIdz+a3g06kgzIih+ahNrgDhKnTSGXR/UT77cNRe27R+CpAYJ44nOZPh4zTFpEFxafQUmC/G2O5r6b7FgkQ6LRIWSAEiYaSoIhwkMe3+DkD7A/hE1PYU6guO3N/A50uxrHQ7iUjmtChZIAWIkrmiCwdetdVqP7+WeOiLo9wLpltR9RfQgyVBIZoWTQukANE0nIlqLGhXO60CfH9LEAmao/4/WZf9h0F4FMyPgOgxsPUoujOPjFSWQxM2V20jBYiqxRKSD/Kl0+oJ6O14NzK8HpjFDqkbbL2E3o6XWjWUNyHzJNZNCpDETJ121I4WSAHSjrOW6pyYBVKAJGbqtKN2tEAKkHactVTnxCyQAiQxU6cdtaMFUoC046ylOidmgRQgiZk67agdLZACpB1nLdU5MQukAEnM1GlH7WiBFCDtOGupzolZIAVIYqZOO2pHC/w/mOI+yJzN1HcAAAAASUVORK5CYII=;" parent="1" vertex="1">
          <mxGeometry x="74" y="618" width="83" height="83" as="geometry" />
        </mxCell>
        <mxCell id="oiUiUNXv8FLWz6BhB0Yb-80" style="edgeStyle=orthogonalEdgeStyle;rounded=0;orthogonalLoop=1;jettySize=auto;html=1;dashed=1;" parent="1" source="oiUiUNXv8FLWz6BhB0Yb-79" target="oiUiUNXv8FLWz6BhB0Yb-74" edge="1">
          <mxGeometry relative="1" as="geometry" />
        </mxCell>
        <mxCell id="M-sG7biV-YqiBXyDXIAh-2" style="edgeStyle=orthogonalEdgeStyle;rounded=0;orthogonalLoop=1;jettySize=auto;html=1;entryX=1;entryY=0.5;entryDx=0;entryDy=0;dashed=1;" edge="1" parent="1" source="oiUiUNXv8FLWz6BhB0Yb-79" target="CHO04k-N2ElT4XNojvUd-1">
          <mxGeometry relative="1" as="geometry" />
        </mxCell>
        <mxCell id="oiUiUNXv8FLWz6BhB0Yb-79" value="文档切片与处理" style="shape=image;imageAspect=0;aspect=fixed;verticalLabelPosition=bottom;verticalAlign=top;image=data:image/png,iVBORw0KGgoAAAANSUhEUgAAAMgAAADICAYAAACtWK6eAAAAAXNSR0IArs4c6QAADHpJREFUeF7tnV+IXFcZwL9zZ5NSCY2ZTRqpSupm765BW9QVCiXSBop5SUFoweqDqDTWuamtfx4U+5ANtDQv5iFkZpESpPhSQlFq9cEIGq3JW7G7aMvu3Q2ilJo1e7ehD4rdmSOTdXFJNsmec//Md+/97VOh53zfd37f9+PMTC4zRviDAARuSMDABgIQuDEBBGE6IHATAgjCeEAAQZgBCPgR4Abx48aumhBAkJo0mmP6EUAQP27sqgkBBKlJozmmHwEE8ePGrpoQQJCaNJpj+hFAED9u7KoJgUwF2XlqYaxrZMLIynhN+HFMVQSCC0NbG9OLh0cuZVVWekGO2qHmnfPHxZhHReyerAojDgT8CdgZY4MzS0dGn/OPsbozlSDDp+bus43gFbF2d9pC2A+BHAi81ZXeoSvR+EXf2N6CNNvzXxRjX/JNzD4IFEXgjtuHbv/r1z72b598foKcjG9rDsmiiNzhk5Q9ECiSgBGZWorCyCenlyDDnbhjRVo+CdkDgUEQMEa+stQKf+qa20uQZideEJER12Ssh8DgCNiXkmjsS675nQXZfjLe2xiSeddErIfAIAkYkYWlKBx1rcFZkObUwiNiey+7JmI9BAZNIGhsuevyE3e/41KHuyDt2UkxwVGXJKyFgAYCva4cePdb4TmXWhDEhRZrS00AQUrdPorPmwCC5E2Y+KUmgCClbh/F501AtyC2dyxvAJWKHwT2uvP0ejd+z7h+/c3WrQVdW3+rtf11WeW99kybjduved1aa4IHjMiDrv3WLYiRyaQVIolrV1l/HYEdnfh31RPE9o4lR8Yn6TcE0hKopiDcIGnngv3/I1BNQbhBGPCMCFRTEG6QjMaDMAiywQw0p+LVx1v6n2as/2Rl7b83+6nMNbF5X1Q+4aopSMqXWL5QbtZ+K3JuOQoPlG9E6l2x7yzo/pgXQeo91RmevpqCpHwP4guFGyTDyVQSyncWuEEcG8hLLEdgSpZXUxBuECXjVf4yEGSDHvpC4SVW+YW49gS+s8BLLMdZ4CWWIzAlyxGEG0TJKOosA0EQROdkKqkKQRBEySjqLANBEETnZCqpCkEQRMko6iwDQRBE52QqqQpBNmhEs/+FdTn88TRvDlBzDokgOQMmfLkJIEi5+0f1ORNAkJwBE77cBBCk3P2j+pwJIEjOgAlfbgKVFKT/YGC520L1mghU74vjNNGllloS0P24ey1bwqE1EUAQTd2gFnUEEERdSyhIEwEE0dQNalFHoCBB4s+LkV+rOz0FQeAWBIL3undc/v7H33MB5fwjnne+cHH3yvvdf7gkYS0EBk/AvpFEY592rcNZkH6CZmduWsTc65qM9RAYGAEjLySt8Buu+b0EGW7PP2ONfdY1GeshMCgC1pj9y63R8675vQRZvUXiN0Vkn2tC1kOgaALGmKeXWqMnffJ6C7K9MzvSkGDBJyl7IFAkgSQKvefce2P/gNtOxru2DMkZn+diigRErtoSOJtE4cE0p08lyFri4U583Ip5TMTuSVMMeyGQDQE7I2JeTKLwRNp4mQiyVsTOUwtjXSMTRlbG0xbGfgi4EwguDG1tTC8eHrnkvnfjHZkKklVRxIGAFgIIoqUT1KGSAIKobAtFaSGAIFo6QR0qCSCIyrZQlBYCCKKlE9ShkkBmguzszE90pf8Rb2/CihlTeVqKqjYBY84HIq+vvG9nrjwVZvKUR2pB+mL0RI6L2IeqTZ/TlYuA+Zkx3aeWWuNvp6k7lSDD7fh5a+QHaQpgLwTyJGBEnlyKwrZvDm9Bmp34RyLyXd/E7INAYQQC+UTyzbD/9Lnzn5cgO368sN90e685Z2MDBAZCwP4xicY+55PaS5DhdvwLa+Rhn4TsgcBACBiZTFrhMdfcXoI0O/E/RWSnazLWQ2BwBMyvkmj0kGt+Z0F2dC7ea6Q77ZqI9RAYMIHFJAp3u9bgLEhzKv66WDntmoj1EBg0gaAXjF9+cu+cSx3ugvR/K9AER12SsBYCGggU9MVxCKKh2dTgTgBB3Jmxo0YEEKRGzeao7gQQxJ0ZO2pEQLcgRiZ7K/L7GvWDo+ZEwDTkqM9XTekWxPaOJUfGJ3NiRtgaEajkj3iK5z/116jvHHWTBKopCDfIJtvPslsRqKYg3CC36jv/f5MEEGSToFhWTwLVFCTlS6xmJ35ZxExkORJG7PJSFH4my5jEyp8AgmzAeFUQeSRL/EbkTwiSJdFiYlVTkJTvQRCkmOErQ5ZqCpLJSyxukDIMcN41VlMQbpC856Y28RGE9yC1GXafgyIIgvjMTW32VFMQ3oPUZoDzPiiCcIPkPWOljo8gCFLqAc67eARBkLxnrNTxEQRBSj3AeRePIAiS94yVOj6CIEipBzjv4hFkA8IfbM99Kg/w7x4ZeyOPuMTMjwCC5MeWyBUggCAVaCJHyI8AguTHlsgVIIAgFWgiR8iPAILkx5bIFSBQTUEq0BiOUG4Cur9Zsdxsqb4CBBCkAk3kCPkRQJD82BK5AgQQpAJN5Aj5EShIkPg7YuREfscgMgTyIRCI+ezlaPR1l+geP+I5f78Ye94lCWshoIDAv5Io/IBrHc6C7Gr/eVvX3JaIyBbXZKyHwMAIGPlD0gofcM3vLEg/QbMT92+Q+12TsR4CAyRwIonC77nm9xJkuD33VWvMT1yTsR4CAyJwJWhs2Xf5ibvfcc3vJcjqLTL3GxHzkGtC1kOgaALWBA8vt/b+0ievtyBXJWnHfxcjH/FJzB4IFETgbBKFB31zpRKkn3R4av4Za+2zvgWwDwJ5EbAizy9H4Q/TxE8tSD/5js7Cl430DliRUSMSisiH0xTFXgj4EbCzVsysEblojHl1qTX6W784/9+ViSBpi2A/BLQSQBCtnaEuFQQQREUbKEIrAQTR2hnqUkEAQVS0gSK0EkAQrZ2hLhUEMhVk56mFsa6RCSMr4ypORxE1IxBcGNramF48PHIpq4OnF+SoHWreOX9cjHlUxO7JqjDiQMCfgJ0xNjizdGT0Of8YqztTCTJ8au4+2wheEWt3py2E/RDIgcBbXekduhKNX/SN7S3IjqmFQ8b2XvVNzD4IFEUgiULvOffe2OzEb4vIXUUdkjwQ8CaQ4gdkvQRptmcnxQRHvQtmIwQKJuDzhQ3e70Ga7XhGjNxT8BlJB4E0BE4nUfi4awDnG6TZnv+oGPs310Ssh8CACfwlicJPutbgLMhwZ/YLVoKfuyZiPQQGTWDoP40PLX7b7d9InAXh/ceg20x+XwI+70MQxJc2+0pHAEFK1zIKLpIAghRJm1ylI4AgpWsZBRdJQLcgtnesSBilzxUE9roz9Ho3fs+4fv3N1q0FXVt/q7X9dVnlvfZMm43br3ndWmuCB4zIg6491i2IkcmkFSKJa1dZfx2Bav5GYYrnYZgRCKwnUE1BuEGY8owIVFMQbpCMxoMw1RSEG4TJzogAgmwAsjkVrz5e3/80Y/0nK2v/vdlPZa6JnRwZn8yob4QpiEA1BUn5EssXys16ZkXOLUfhgYL6SpqMCPjOgu6PeREko/EgTDUFSfkexBcKN0j1hPKdBW4Qx1ngJZYjMCXLqykIN4iS8Sp/GQiyQQ99ofASq/xCXHsC31ngJZbjLPASyxGYkuUIwg2iZBR1loEgCKJzMpVUhSAIomQUdZaBIAiiczKVVIUgCKJkFHWWgSAIonMylVSFIBs04uoX1uXwx9O8OUDNOSSC5AyY8OUmgCDl7h/V50wAQXIGTPhyE0CQcveP6nMmgCA5AyZ8uQlUUpD+g4HlbgvVayJQvW9W1ESXWmpJQPfj7rVsCYfWRABBNHWDWtQRQBB1LaEgTQQQRFM3qEUdgUIE4Vdu1fWdgjZJoKBfueV30jfZD5bpIlDM76T3z9xsxzNi5B5d56caCNyUwOkkCh93ZeT8M9D9BMPt+Wessc+6JmM9BAZFwBqzf7k1et41v5cgV2+RTvymiOxzTch6CBRNwBjz9FJr9KRPXm9BtndmRxoSLPgkZQ8EiiSQRKH3nHtv7B9w28l415YhOePzXEyRgMhVWwJnkyg8mOb0qQRZSzzciY9bMY+J2D1pimEvBLIhYGdEzItJFJ5IGy8TQdaK2HlqYaxrZMLIynjawtgPAXcCwYWhrY3pxcMjl9z3brwjU0GyKoo4ENBCAEG0dII6VBJAEJVtoSgtBBBESyeoQyUBBFHZForSQgBBtHSCOlQSQBCVbaEoLQQQREsnqEMlAQRR2RaK0kIAQbR0gjpUEkAQlW2hKC0EEERLJ6hDJYH/Aum+ozLk5eRGAAAAAElFTkSuQmCC;" parent="1" vertex="1">
          <mxGeometry x="84" y="766" width="63" height="63" as="geometry" />
        </mxCell>
        <mxCell id="oiUiUNXv8FLWz6BhB0Yb-83" value="质量设计文档" style="shape=image;imageAspect=0;aspect=fixed;verticalLabelPosition=bottom;verticalAlign=top;image=data:image/png,iVBORw0KGgoAAAANSUhEUgAAAMgAAADICAYAAACtWK6eAAAAAXNSR0IArs4c6QAAD+9JREFUeF7tnXuMVNUdx7/n3n2wLG8RFVgBodQiD2UfLCBRKj4w1trW1reJaVrbpjVaobUxtrUxtnVnwUVReSQmpe0fTW1rmuIrrdqoaQSCrSLSUnziAxF0H/PcmdOcdQcXuuDOnfs7c+7MdxJiYu75nd/v8zufPffOzL2jwBcJkMBRCSiyIQESODoBCsLVQQLHIEBBuDxIgIJwDZBAMALcQYJx46gKIUBBKqTRLDMYAQoSjBtHVQgBClIhjWaZwQhQkGDcOKpCCFCQCmk0ywxGgIIE48ZRFUKAglRIo1lmMAIUJBg3jqoQAhSkQhrNMoMRoCDBuHFUhRCgIBXSaJYZjAAFCcaNoyqEAAWpkEazzGAEKEgwbhxVIQQoSIU0mmUGI0BBgnHjqAohQEEqpNEsMxgBChKMG0dVCAEKUiGNZpnBCFCQYNw4qkIIUJAKaTTLDEagpII0/kKPRlVijqe8OTqnTwhWAkcFJeApvKXgbx9XU/3SIzeoVNA45TyuJIK0xJLfygHfVsDccoYbodoSgN4OjY1bVtY9GKG8xVO1Ksisn+wbUT9y5EZAXSZeGScISuBvPV21y1++XaWDBiincdYEafpl8rPKxyvlBK+ca8n52Ynbbqp/p5xrHEpt1gRpjiX2AmriUJLiMQ4QUGrHlptrZzuQSUlTsCJIc1tyPRS+UdJKOXkAAuq2LStq7wgwsGyGiAvSFEueq4DHy4ZYhRWSy+H8bT8YVrH9ExekuT15AzQ6KmxdlU+5Ciu33DwsVj4FFVaJvCCx5DoA3ywsLR7tCgEFten5FbXXupKP7TzEBWmKJbYqqEbbhXG+cAho4F9bVwybF0606EURF6Q5ltTRw8KMBxLYsmKY+Dpxlbh44RTE1dYPPS8KMnRWBR9JQQpG5twACiLYEgoiCNdSaAoiCJqCCMK1FJqCCIKmIIJwLYWmIIKgKYggXEuhKYggaAoiCNdSaAoiCJqCCMK1FJqCCIKmIIJwLYWmIIKgKYggXEuhKYggaAoiCNdSaAoiCJqCCMK1FJqCCIKmIIJwLYWmIIKgKYggXEuhKYggaAoiCNdSaAoiCJqCCMK1FJqCCIKmIIJwLYWmIIKgKYggXEuhKYggaAoiCNdSaAoiCJqCCMK1FJqCCIKmIIJwLYWmIIKgKYggXEuhKYggaAoiCNdSaAoiCJqCCMK1FJqCCIKmIIJwLYWmIIKgKYggXEuhKYggaAoiCNdSaAoiCJqCCMK1FJqCCIKmIIJwLYWmIIKgKYggXEuhKYggaGlBPAWMdODp/PG0RiYrCLKEoSmIIHwpQT4/08Mlc3y0TvUEsy8s9LudGuuey+IvO8rLFApS2Doo6GgJQX66vAoXzvILysPmwc/uyeGmP2ZsTik2V5UHNIz1Nw9pAqU0tA7tN2eqq7w3c9Bbx3j+Q/dfpQ4OKYeQDwqtmKPlFbYgZ83w0PbF6pAxhB/uzsd78acXo7+TGEFaptWGD6jAiJ1JfaAnmVn7u+tqf1zg0KIOj5wg7ZdUY8l0d06rjka/MwksW5sqqjkuDHZFkDyLzkTupZN3efNuv13lbPCJnCDP3liLanfPrg7r2bK1aXRG/CcaXRPEAO5J6YNj0qohdq3qkZYkcoI89b1aDK+RxhJO/CUdKaR6w4lVqiguCmJYJDN667qvec3SXCIniOsX6PmG/eO1HG54KPoX6q4KYjgn0rhz/WXqVklJIifI3IkeNl7h/kX6yoczeHq3ldNkyfUBlwXJZJG871JVJwkgcoIYGF9f6OP6RVWSXIqK/ZutWXQ8HfFzq34CLgtiUjwYz934q6v8jqIadozBkRTE1DPtOIUvzP74g8LJoxU+KuHF8NjhCns/1NjyRq7vQ8Kd72mpflmP67ognYnsYw9eWXWBFJjICiIFhHEPJ+C6ID1p/erGy7xTpPpGQaTIlklc1wWJp3Tnhsu90VK4KYgU2TKJS0GEGxn2V02E02X4IwhQEOElQUGEAQuHpyDCgCmIMGDh8BREGDAFEQYsHJ6CCAOmIMKAhcNTEGHAFEQYsHB4CiIMmIIIAxYOT0GEAVMQYcDC4SmIMGAKIgxYOHyVD7RML+Ett+Zrbfl/g9TKT9KFFwDDH5tAnyAzSyhIPj0jibnF/4g7CCgIV3BJCTgjSJ6CEWTAnQQUpKTLg5M7J4hpidlNjCQaoCBcoyUl4KQgeUkyFKSki4OTA84KYpqTBeJxft2d67SEBJwWBEC8i4KUcHlwaucFiaNzw1cVb5g62lIdNQyorxG/70vMlHc63b5/3XlBErprw6XeKKkGia8sqQ8KZ5/k4XMnKoypEy9Bin1f3GRGY88HGi++nYN5XKlrL+cFSemuDV+mIIetG/PTB9PHu/983kIWuxHl0Z05vN/t1o5CQQrpYoBjw95BWqZ4mDepvOTIYzWPDtr8sltPhKcgARZ9IUPCFuQr83yMq4/2adWx+D38Yhb7utzZRShIIas9wLFhC3LdAh9VfvkKYp7pa65HXHlREOFOhC3IlY0+6mvLV5C/7sr2XbS78qIgwp0IWxDzuNETR5WvIL/d2ouetHBTCghPQQqAFeTQsAU5aZTCRbMj8gs6BQJ7dk8WL7/rzu5h0qcgBTax0MPDFsTMP36Ewpfmlpckrx/I4fFX3Ln2yPe5ugponlPC+0HM3wuDZZB7QUyOcX4OMriS5onqp56gMLIWqInwRfvBhMb+bo1d+9zaOQ4TZG4JBRnYfiOJ+Zr7gL8jFKTQLYvHh0qgbwdxRZB8ZeYarf/jIgoSarsZrFACTgpiiuiXhIIU2lEeHyoBZwUxVSaBeJLfxQq14QxWGAGnBTE3THVRkMI6yqNDJeC0IOZdrE7dteESfps31KYz2NAJuC5Iolt3r7/YGzn0igo7UvwjaYnPQQorkUcXQ8B1QZJx3b3uIgpSTI85tggCzguSQve65Yo7SBE95tAiCLguSCKpe9Zf6I0oosRjDuUplhTZMolLQYQbyWsQYcDC4SmIMGAKIgxYOHxNNdDUVKLvYuWf6p7/suIgtfIUS3gBMPyxCfQJ0loiQQamZmTJ9P8b8P8pCFdwSQk4I0iegtlNUp98o5eClHR5cHLnBDEtMbuJeYZYDqAgXKMlJeCkIIaI2UkSFOSoi8P3gJnHq77708N49OhbH2rs79Ew/+XrEwLOCmJSzACJTn4O8n/r1dxNeM5MD+a/Yb9e+yCHJ3a5d+tr2HUONZ7TgphN5IDuWb+cHxQe6ueIWuCKxqqh9jfQcc/tyWKHYw9PCFRICINcFyT5kY6vO8+rD6HUQUOE/yf4iGnC/hzkvFM9TBkn/+jRzTuy2PsRT7ecF6Rbx9edQ0EOaXf5fB8jh4l7jWf+m8XO9yiI64Kk4jrxwFJvOHeQfgK2Hj265fUcXtjLaxHnBUnoxANnU5BDfyBsPbz6yf9ksft97iAURGpv6o8b9jXIwqkeZk+UvQaJp83PEORwME5BKEjEBDHpXnSaj5NGy12H/P6FLOXoXxcUJIKCmJQbGzzMbwh3J+lKajy9OwfXfzdQuGWHhacgwrTDPsUamO6wamBEjUJ1CI/p7U5rxNNAltflFGQAAbnzFKFrEGGfGf4IAtxBhJeE5A4inDrDA6AgwsuAgggDFg5PQYQBUxBhwMLhKYgw4OZY0tza4sA9m8KFlml4CiLc2OZYcjeA6cLTMLwQAQoiBDYftjmWfBLA2cLTMLwQAQoiBPaQIG2JTVDqauFpGF6IAAURAvvJDpL4OaBuEZ6G4YUIUBAhsANOsb4DYK3wNAwvRICCCIHNh21qT16sNB4WnobhhQhQECGw+bBnrNHHV6VT+4SnYXghAhRECOzAsHwnywJkoSkoiBDYIwThdYgFzhJTuC5IOonO+89SoyVqNzHFv81rJmlpT87UGrukimBcOQLOC5LGgfuXqOOkCFgRxCTP0yypFsrGdV2QTAb77jtTnSBFwZogLe2pW7XWd0gVwrgyBFwXJJvBO/eeqSbKVG/pFMskvyDW05iD/zyAcO+TlSLDuH0EnBekV79572LvZKl2WdtB+q9F7tEa35UqhnHDJ+B5QOtid7+MrTX+uaZVnR5+5R9HtCrIglhqVg7a7CJiz1KVAlXJcY0gRhQnXzk81bFQLZXKzaogfbtILHWXhl4pVRDjhk+gsbkGtRYe9xokc5XFprsXqWuDjB3KGPuCtCWmaaXMLjJ+KAnymNITOG12NUaPdXMLUb344d2L1V1SlKwLYgppbkv8DErdJlUU44ZLYMoUH5NOlv3JicAZ96KlY7HaEnj8pwwsiSAz1ujasZnUY9A4S6owxg2PwKiRCrNPrwkvYFiRFN7uaFGTwgo3WJySCGISabwrOd3z8AyAEyULZOxwCDQ21aC2rmTLZdAivBx+vXqhuiacCgePUtKKm9oSZyulzC25fDlOwMXTLJ3GkjVLlPkjK/YqqSB91yPtqauh9SaxChk4FALmbd7m1hr4fsmXzMf1aPy9o1WJn6I7UW1zLHULoH8eSicZRIzA1Kk+JjY4crGewXkdZ6onxIrtD+yEICaXplhyuQI2SxfM+MUROGN+NerqS/uWr/RnHwMJOSOISWr+quQML4dHFDCjuDZytBSBMWMUZs0p4TtaGjs7WtUsqfqOjOuUICa5hat0XSabfkApLfbpqC245TrPxEk+pp5SklOtD3Uay9YsUdtssXVOkHzhze2pO6H1j2yB4DyFEbD9rpYG4n4Ol69eqP5cWKbFHe2sIKas5vbEOYBaAY0LiiuToyUINDT4aJhqZSfZ76Vxzeol6lGJOo4V02lB8ok3tSWv9xRWaF6b2F4fnzrfhOM9TJlehepqoaWUwzbfw5WrFqh/f2oyAgcIVRV+pova9IQMUiuhsCL86IxYDAFzU9Upn6nCuONC+C28fCIavV4O96xepL5fTG7Fjo2MIPlCW1frqdnezFKl9FINbe4DmFwsBI4Ph8C4sR7MBfyoYr75q5BSvfhDlY9bYwvUq+FkFjxK5AQ5stSmVfEWZNW5SqllABr6hXH3FrjgvYrMyPp6hQkTPIwZ46FuxJA+M+lBDtu9LB7Z34OOTeerHleKjbwgg4E0T3P0kvEG5fuTlcZkrfUEV4BXWh5+FbwJ4/1pY8b5ueF1QE2NB99DQil80JvFG/Cw/Z5FffcHOfkqS0GcJM2kIkmAgkSybUzaFgEKYos054kkAQoSybYxaVsEKIgt0pwnkgQoSCTbxqRtEaAgtkhznkgSoCCRbBuTtkWAgtgizXkiSYCCRLJtTNoWAQpiizTniSQBChLJtjFpWwQoiC3SnCeSBChIJNvGpG0RoCC2SHOeSBKgIJFsG5O2RYCC2CLNeSJJgIJEsm1M2hYBCmKLNOeJJAEKEsm2MWlbBCiILdKcJ5IEKEgk28akbRGgILZIc55IEqAgkWwbk7ZFgILYIs15IkmAgkSybUzaFoH/ATq0NxTNnFiwAAAAAElFTkSuQmCC;" parent="1" vertex="1">
          <mxGeometry x="-314" y="610.25" width="98.5" height="98.5" as="geometry" />
        </mxCell>
        <mxCell id="oiUiUNXv8FLWz6BhB0Yb-86" value="&lt;font color=&quot;#cc0000&quot; style=&quot;font-size: 18px;&quot;&gt;&lt;b&gt;（1）转化&lt;/b&gt;&lt;/font&gt;" style="text;html=1;align=center;verticalAlign=middle;whiteSpace=wrap;rounded=0;" parent="1" vertex="1">
          <mxGeometry x="-335" y="401" width="87" height="30" as="geometry" />
        </mxCell>
        <mxCell id="M-sG7biV-YqiBXyDXIAh-1" style="edgeStyle=orthogonalEdgeStyle;rounded=0;orthogonalLoop=1;jettySize=auto;html=1;entryX=1;entryY=0.5;entryDx=0;entryDy=0;fillColor=#ffe6cc;strokeColor=#ffb770;strokeWidth=2;" edge="1" parent="1" source="CHO04k-N2ElT4XNojvUd-1" target="oiUiUNXv8FLWz6BhB0Yb-83">
          <mxGeometry relative="1" as="geometry" />
        </mxCell>
        <mxCell id="CHO04k-N2ElT4XNojvUd-1" value="基于规则匹配" style="shape=image;imageAspect=0;aspect=fixed;verticalLabelPosition=bottom;verticalAlign=top;image=data:image/png,iVBORw0KGgoAAAANSUhEUgAAAMgAAADICAYAAACtWK6eAAAAAXNSR0IArs4c6QAAIABJREFUeF7tXQmYHFW1/k/1JGFJSLp6kgASHkm6ehJkUZSgIO+JMSyCIKARZNGAMOnqJOxRRB+i4sIiENLVCRFQlEUUeICyiIASEFBkEyHp6kmCRCRLV09ICCQzXefN7Uwgmcxk7q2q7p7urvt984WPOdv9b/1Tyz33HEI4QgRCBPpEgEJsQgRCBPpGICRIeHWECGwHgZAg4eURIhASJLwGQgS8IRDeQbzhFmo1CAIhQRpkoSsxzeHW4nFNoKNdpgkg7FH6cTEGhF0ALAfwRulfxnKN3EfzzYnHMZWKlYjNq4+QIF6RC/VKCIzI2B/VgGPBOArAQYqwrCPgPpf5ic4mvmtta8tqRf2yi4cEKTvE9elg9/nP7fRe57DZoMhFAO/kf5a8GERXOEnjJv+2grMQEiQ4LBvGUjSTO0ljns3AR4OeNAP3CaIUkvGngrbtxV5IEC+oNbBO1LJ/SMDFZYeAcL6TNK4pu59+HFSEIM3WohYm7QgwTWDQniDeE4w9AQj/m17cSi9v7nKNtftWzzCerzYwof9tEdAte0HXOn29gtjc6JhGJf1tM7WyEUSflzsSLk8B0RQw76sGKi0j4gfYpSecVPzXarqhdDkQ0NPZJSAaWw7b/dh82DGNI6vgt+QycII0W0taXC7OBuGMQCZFeARFvtKZkXgkEHuhEWUEoml7JRFGKisGpEBAJm8aZkDmlMwESpBoOjubiC4C0KwUhYQwE+aSS1c4qbh4JAtHhRCIWvbjBHy6Qu76dMPgZMFMzKt0HIEQpPnGVcPcjWt+AebjyzkBBtoYOL/dNO4rp5/Q9iYEomk7TYSq/OXubQ2YcWohZdxayfXxTZBYZvGHmLWHAOxTqcAZ1Fow4zdUyl8j+hGfcon59gDmLu74/wF4IkDDfNljrOAmbVKhdfy/fNlRUPZFkNj8pQdxsfMZBX+BiRJwSd40fhiYwdDQ+wiITcANxeFPetnnYMbjGuhuUHHRxghe3HJ3fLj1+jiNNuwN1iYSeLa3R3G+0jETQrciwzNBotai/QiRlyoSZR9OXOC48HEr+BXQ04u/C9IuVbVMwLfypvEjGb1oJrcPMYt3ikNk5LeQWc/UcVAhufcrinqexD0RpHn+st1ct+MVMHRPXgNU4oh2aKF1/JMBmmxoU6XcKqYnVdNHtGLxwNUzJzynCl7Usi8XxFLRI9C8vBlPquh4lVUnyPznBunFXR4D6FNenQast9LV3MPbp7dU9W4W8JyqZi5m2RczoPbo2okxzixDbPZ6GrF09mtMdLO8MjuDhu6y54rTd31HXsebpDJBdCv7fYC+7c1dmbSIHnCS8aPLZL2hzKp/1uWrHDMhPu37Gno6+3sQfU7aCOHLTtK4U1reo6ASQUbOazOKLj8LcNSbP17MoMUa4VUX7kvkap1E4uwAT3BdTCTCBADeMkOZTgp33b2tymYtPZ0bA2KFL0T8e8dMHOPP6yZtfZ69N1z8U9YWA7cUTOOrsvJe5ZQIomdy14L5HHVnvNB18e32GYkntqc7Mp2LF8m9FiD1uwHzk04qcah6bKHGZgS6dszNrh3ztCQi70SYPrIqFc9JyvcrpvhxIO+YRuAb0j2DlCZI83z7ALeIvwKI9DvTLQTE82zBNC5R0dGt7JUAXaiiU5Jl92wn1SIS6sLhAQG1jUH+m2MmJnlw06dKNNN2DLF7v6zNjZ0YtW6WsUpW3oucNEE8vXsQjnSSxsNeAtPn2HugqZTpKz0Y+FPBNA6TVggFt0Igatn3kjgdKDOIfu4k49NkRGVlRlyzdIQ2pLMgK1908bE1Zc78ViCIvRhAQjZ4BPDiPOJ6+9NaBI9L+wSgadqBq6ePV/7cqOKjXmWjGfvvxDhAZn4Mnl0wE1fKyKrIRC37OQI+JqNTiX0wKYLE5i6ezJr2R5mgu2VWO6YRSPan2m2/lJ98jZM0zleINRTtRkAla5c17ejC9PEPBA2ebtnikNS5MnaZkSqkDEtG1quMFEH0dPY2EJ0s7STAd4Hh8+3xWieelk63JlrhJOO7SscaCr6PgG7ZGwEMkoGEmKflU4mfy8iqyESt3D0E/oKMDhMuLiSNH8vIepWRI4iV/StAB0o6+adjGoEmLuqZ3M1g/pqkfwx6Z/3QFRftX/ZNJNl4akVOz+TeBPNucvHSlY4ZDzwnSrfsfwPYXSaGruzu0wqm8SsZWa8ykgTJLQK4RdJJ4MckY5ncDGa+XtI/tEjH7qtb9/6PrHwotwkB3bL/IZ2VzfyAk0qof47fDtgj0tmPaEQvyK6HW8Rh7TONP8nKe5GTJcibgORfFsbXnZRxo5dg+tJRBU5DccJqc4L4qBAOBQTUdtFpmWPGAz2CG7VyZxN4vmzIxQjia1qNNll5L3KSBLHXAdhZyoGGDzvTjVelZBWEdMsWRcViMirE2qR8avzfZGRDmQ8Q0NO5C0B8lSwmxDQzn4rPlZXvT063bHGu6Ij+5Db/3unEDphlbJCV9yInS5AOAE0yDrQhI3ZZfebItTKyKjIxy35e9nwCRZo+kW8d+6yK/VAW0Ofan4SGvyhgUdRQ/HAQd2s9bZ/ZVar0Z/K+g9+o7M23HEEydl42tZ1c7bP5GeMflZ9o/5Kjb3lr5451a8VdTGoMIhq9IhlfKSUcCm2FgG5lFwEk+74pdH1/lNHn2LugCWvUloJ+4Jjx76jpqEvLEcTKLQV4LxnzKodmZOwJGT1jHwGGuP32P5jfcVKJof0LhhK9IRDL5H7CXDrtJz/YvcxJtXxXXmFrSV3tK2lJmVk7tJAq/zkgSYJkXwJoPykAiO5xkvETpGQlhWJW7tsM/r6k+CuOaSjW4ZK03ABi0UzuEGL2cgDtsQg3nbIqNfYtWZii6ezJGtHNDAyR1emWyzqmoXKXUzT/gbgsQRYqHJD6t2Mae3iOqBdF3crdBbAU6US18LxpHBek/0azpYJ3D2w6iHBmPmn8sj/MvGeGi2QJ+k7ejP+gPx9B/F6KING0/U0iSJ01Lt3+gB8VTEPpGGVfk1HOxyK6zknGpVIVggCwHm2ons3oBYMsmP/edQDqry7zn5p2iLbxu29PguZOYqIDwSyygD/kETu7iHcPWmPuJ53U6NFPSU2KIJvOabCt4ogR2b9gjntZRac3WdXnU3LxhfwM416/fhtdX/FsRuXgYj7XSSWuq5RDKYKIYHTLfhCAfI1U5kVOKjHRz0SiVvYiAl0ha6Or6viGvGnsICsfyvWOQNTKXURgadwrhSMzni+MjE+qZFcqaYLErNxMBs9RAYMZViFlpFR0Nsvq6dyFIFZNp/6pYxoXePEX6mxCIGbZKQYC2/wLDFfCRk3DJ1e3VrbyvzRBRi1YMrqzoyhOFIq2BdKjKyV5FWk4TfbglJ62DwdB/PXaX9rJZsEy7eIrx1GjCrqVnQbQgOrwtBnKSuRd9bZs0gQRyj5vvTd2fbt+lLWNT7cnJy7bMphh8xc3N3VgEkW0A7ve8L1+Tw/sDEqNXt++wtbTi78M0u7wZaRMysT01XwqfkuZzG/XrBJBdp//5k7vFdeLqiZ+09mzIBIpDR3dXzTU7xY9p+Vzs6oa4A8Un6pnwSsZN4NmF8y46qN2YCEqEWTTXSQ7nUCZwCII1lD4DqKIZyyT+wwzB5oapBhCX+KdAJ/tmAmFgnIBed7CjDJBhK7qAabgw96ORcICJ2mcXVGfNeqsK3v2E13Zs08PtPDF1yotos3OTw82p8/LPD0RpEQSD/kzXgL0qPNrJ7LmNLR+XGQhh6MXBPwUH2cgp2m4kJm+DeaPBwiwDea0M9KYW8lPuduL3zNBNpFE4ZxIgChKmWJ+oHPIjqe9/fUxjpR8Awl1b/yKWsZeqli+Rawdu/m8TSydncikTQPYe/lR5kVE2q2dWJ+u1A657HL7IkjpnUShVIxsUMHJ0UKXOk7v+dUsOPu1Z0lU5i92drwkXQRj6ymu1ZiOW52Kb1OKKTq/bU/q7DwDpInqluKnn+IP9CTYvZfAf86nWgbs4TbfBOl+J/FYkrQSFxi/xJHIaYXW8eK8ddlH1ModBXIP0Zh0BumAG2MinVj8N4t2ETsClAdY/DgMyhOQJ6K8y/yPSGTQo6tb9yrLefro/LbhVCy+CJDU0YWtwaIiMx9fSBn9Vz6c/9ygERuHH6JpNJo0jHbBO4GxnItYzoPxxpoNWF7uk4BBLXQgBOl+Jxl4Vd8/QGkJU/H0QnLCU0EBt9mOeFxxCUcBPIVBnwV4R78+GPg7gD8A2lMu3vlLII8dpbYVI573+omeiU4uJOMDcp/EL95lewfpaVifZ3+SGClmnBJw0P8kpitc8FUeHw1EVuYqZjrdScXlDl5tZwLdDYTOBpcIUe4+KesJeNSFmymYLSIfztPQLVu0yjvIkzJwVtcRBoXjsB69DEC1wO4gW85NTy85nKg4gwHR70Gp2HUPjB4m5hvyqcTdm/+/n3ceBjaQi9OdGd76SpSI0bmhFaSdJVu7KdA1J9zpdiKjWupGt2yxz/EZj7Gc55jGtR51a16tLATZjErz/Fd3486mI1jTDgdYHJvtr2VbO8D/AtNzpNGt+WT8sd4QViqy3JsBxdJEVSfGNnOgX5DrZvIzEv0WpohZ9n1dj2yf93KlEtG388n45V5060WnrATpCdLoTG5UkWhPBvZkVyQ9uiC4ywiRN7RB2vKVZ41bIQuscs3enoYZ5zspQ9SB3e7oPhdRnTtGP7ER8xX5VOIbfYnpVvZ2gE7qb469/Z4YP86njIu96NaTTkUJEjRw0Yz9TWL5k469+L/UMY3v9RaXns4dDM39HpgmBx13sPbo7mKx88I1Mycs3eox18otAPjrXnwx+PqCmZjlRbfedGqaIGIxopZ9KgH9noHuc+EYVzspY6tmPVHL/gYB3wQwojYWnF4G8ezNRwr8nPcG4yYnZZxZG/Muf5Q1TxABkZ7OHQliz194ALrBMeOt3SVOBTG+XH7oA/fwLoG/4YJ2VW2r/EEkdIdjxuWr+Ac+hYFnsC4IImCNzc0exBqJT5keB98BkGjcYng0UNNqXU1r7s+viJ+Ay6izpicScPB1QxCBS/PctkSR3Ce97pUEjG0tmXvM3dB0Yvt5Y9trKehKxFpXBBGADZ1jjxw0CA/JthIrF8iiXyIBS8G8lLXIEnJ5qda0cenQwTsW3l7bOY6beKxG2lhmHtvV0nhcd9uxMeWKZzt2nyHa4Yv55BjRlyMcPRCoO4KU5ncpN0VH5+6SbkgZwGUhUsAJWMisPRJZ1/G71d+YoFzAO5rJ7UOuOxmEKSCaAsbgAELr2wTjHxpFvrTaHBe2iugDpfokSPdk9bR9IwhnlPkiuwnikJZp+Hj/2TZCsWe0EXwiMZ2j0LxIeqpEaCMNUytdJUQ6wAEiWNcEERjrafsqEMpQCojuYBStgtmysJxrOdx6ORrhIeeAIrMAjgbk6y2GO7XcsQcUa1XN1D1BBLqxdO4SJg6klqv42sNMVhBJjyor32wtamFEzmEgqaLXi+xaME2tdPw+Y66aekMQRKDb1eLY7Pq6lfaHNF/lmAnvJ+f8OS9p65Yt6g73myLTuysqEtPUfGr8+8mfAYRU1yYahiCbSNJ2MpF7m5cVZYJZSBoDoppLbO7i41nTxDzUy6wS/a+TjMu2kvACVV3pNBZBPOZuacBxq03jvoG08s0/WTTMHRb5JwDVT8N5V4uc0D593BMDaT4DNZaGIUgss2QSc1EcFx2lshgM+lzBjPtIY1Hxpi4bteznuvdQpJWZcG8haXxBWqGBBRuGIHomdxuYlfKMaiWrVbdsUblF6QtXV83kVCFlWA187UtNvSEIot5BtdQ4pWY6VUWtJfsRiqKMj8r41yCiA8Nmp9uHrO4JMmz+m82Diu88B+C/pK8e5medVEJUHayZEcvYpzFDqcBzVyWVmflkcH3OawYshUDrniBRK3c2gecrYPKeSzi4PWm8oKAzIERjVi7D4OnywfCTjpkQNazC0QcCdU+QrvqzoorJEbJXAAM/LJjGJbLyA0kuOr9tXyq6ooeL/OdfxhFOyvjDQJrHQIqlrgnSbOU+5oLF45Xk4MWdg3c8uJbLleqWfTWA8yUnLMRudEzD09FcBR81K1rXBIla9uVKp+uIznaS8QU1u5pdW+zD59jjI00Q1U5ikvNY57qRfdpnjHtdUr6hxOqaILplvwpAtpHoHxzTkH4UG8hXiZ7JfQ/M35GNkYim5ZPxn8vKN5Jc3RKkea59gKuVSnhKjWq2+ZIKUEFo5Lw2o+i6WVkVBtIF05ghK99IcnVLEN2yxXO1/ONSJ8Y4s4zl9bL4upV7BODPSs7nWcc0auqztuS8fIvVL0HS2XkgapVBSByPLZjGYTKytSKj1nCVirvsGBm6bNrY92plfpWKs34JYtmvAPiwDJAEXJI3jR/KyNaKjJ7OjQHxv2TjZbj/HR6g2hatuiSIaCs9qKitkr04NE07cPX08Qqfg2UtV1dOt3JPACy7EXiBYxo/rW7EA897XRJEn7dkCtyi3OYXYaOTNIYMvKXxH1HMsr/FgGzx6Wsd0zjPv9f6slCXBIlm2k4hdn8ltVSE5U7SUD1TIWW62kIqHyoI+FXeNE6rdswDzX9dEkS3bLGTLHaU+x1MeL6QNERFxbobIyz7WA24V3JiD3dVZjlSUrZhxOqSIDHL/jEDfbYF6LG6DzmmcVQ9rnhs/tKDuNgpVY5ItH0rmEaQLZ3rAtK6JIhu2TcBmCazQl1VDW8pmMZXZWRrTWb4gmVjIx0dS+TiptcdM+6huaec9VqVqlOC5H4H8NFyi1L9SiVycapLjb7lrZ071q1dJ6m53jGNnSVlG0asLgmi1nasfgkyMv3K0CINkSyBSusdMx4SpAf165Igutou+i8LpnF6Pf5J7M7szUnO7Q3HNPaUlG0YsfokSCb3HTD32lqtl5WtmyzennMrtZEjluoNT8ALedM4oGGufMmJ1idB0vaZIEj29eaXHTOxvyReNSUWy+SOZ2a5KoqER5ykcXhNTbACwdYlQaLW4qMI2gNS+DFWOCljVynZGhOKWm3TCa5kNUi+wzETSmWRagwOT+HWKUHUyuA4plGXOHS3sL5U5spgwtxC0pgpI9tIMnV5YagmK6JOCxfoafs1ECZIXdDsXuakWr4rJdtAQnVJELF+umWLbN5mubWsv0+9qgUrmOhThWRc6oVeDtP6kKpfgih1l6q/F/VY2v4RU6nXu8zIO6Yh+cdExlz9yNQtQWLW4i8wtHtkl4qJ9i0k4+KQVV2MaMb+u3wjU77LMRNfrIuJBzyJuiXIiGuWjtCGdBak8WI+10klrpOWH8CCqj3jCZiRNw2fzYUGMCA+QqtbgghMopZ9r3SnW8Kr7nvrDmk/76M13ytctXmphsiEsNNt7yyqa4Iotysj+r6TjP+vjz84VVeNWosPJWgqzXGecUzjk1UPfIAGUNcEGZHOfkQjUilCvd7V3IPbp7eothIYMMurW7nbAT5JIaDzHNO4VkG+oUTrmiCbPvfm7gL4BNlVZdAtBTNek+dD9HTuSBArdMPi/3REhu63tnX31bL4NJpc3ROkOZ07zCV+TGlhib/oJBN3KekMAGG1NH8RcP3t/wS9DHVPkNJdRGlPRGhQgVz3qPyMhCgCXRNDJa1k84Rc5o+2pxIv1sQEqxRkQxCk+11EXOyD5XGmxY4Zl0vTkDdaFkmlrN3NERDd7iTjXylLQHVktCEI0n0XuQqEC9TWjhY6Zvy/1XQqK614KOr94BjaMQVz/O8rG23teWsYgoyYu+S/NCo+C8JopWUawEl8w63XoxFsFB1ulQYz5hZSYeauDGgNQxABRjRjJ4mh3vqY6DonGT9XBtBKyeiW/SUAd3rw9+IgoiPC7rZyyDUUQboftW4A4Sw5eLaUol84zc+fialTi+q6wWrEMvaPmKUTEbdyzsxfKaQStwcbUf1aaziCjEwv3bVIxfsAPtDDsj4c0bSZq6aPtz3oBqKiW7Y4SnymJ2PMc5xU4hxPug2q1HAEKT1qWbmjCHwfgCYP6/5vAqzihiar/byxFcvbiqazJxNwDogO8hCzUHkGTFOdVPwNj/oNqdaQBBErHbPsi0XLZx+rLu4ilhOJp9FKHT7sbFc1NnfxZGjaLAaO9euDgR8VTONbfu00kn7DEqT0PmLZ4iVXvOz6GWKj7RcaaOFqMy7dE3F7DkVFxA3r1k7WgM8DCLZFM+MaJ2WotIn2g03N6zYsQfR09mYQfS3gFXwN4IVMkfsLyfG/U7Et9jO0Jm0KcfFwEE0BMFRFX0WWgEzeNEwVnUaVbUiCRC17LgGpsi8681Jo2hIwLyVgqVv6VyuwxmOJeRxAY5kwlpjGAhwtezxbO7jZMY0zKuyz5tw1HEFi6exPmGh2za1UWQIOa2H1B2tDEUS3bHEY6rL+QGmk3zPwfwXTOL6R5qwy14YhiJ5efAFIu0oFnAaSrdsmQn7XsCEIEs3kWol5nl+wBrD+SwRM6PqM67kZaalX/Ir4ZFxG7gCeZ8VDq3uCxCz7VAZ+6RFZkVYS8ahbCbW3xSPj5vbNMcteycBIH46f2SGy8+Q3W3df78NGXalWjSCjFiwZ3dHR+fGuXelRDBol/iXm0Sz+JdoAoN0laidGOwN/oU5+yplliAtCesTS2RO66l15OhlIzCfmR754bzR/wAXELDbXhks7rozgjR0R95trW1u2Oi6rW3YbgHHeQ+CXOtzi5LUzJua926gfzYoSpHR2IULHg3AcwJ/yAOPDYPcZYnqwv9N+esY+Agxx3kH5DsCg2QUzfuXm+JpvXDSs+F4kRYQZAD7kIe7gVBi/hYafOUnj4b6M6pYtClV8xLtTXkzEk/PJln97t1EfmhUhiJ7OnQWNTxRFogOETZzteNAF7mtPGltVLukufSM26nZR98c3OGaitTc9kejYSR2nUWn3nbwkO6qHI06OAzkQ/RrceWfBnPCyjBE9Y/8ZDB+Hvej1YoQnr2k1xB2pYUdZCRK12r5CcMWG3MHlQ5jWg4tXApEbRSJe83z7ALdYunN46fnxoGMan5OJNTqv7XPE/CWIH6Acvf3WAfRnYtwZLfKvc7MM8dipNGIZ+35mHKOktKUw0QoUebIzw/inZxs1rlgWgpTq4rJmgiBSJioyRAsxMN0Ejc9lxnh1p/ykYyYOVdUbkXltrwiaDu3q5LQfQPuBsb/yqcUPnP4FhD+UMm878LTqO1dvsevp7G0g8tMY520N9Jmg8sxU8a22fOAE0a3slQBdWO2Jqfnnlxwz4eOZfWtvejo3BuCJpGE0uzQa5I5m0OiuHCjx73oiXsWMVV3pLqsY2krSiquwkZ4NghC9kyQ3D8S9PjZK4rSR2Z1cSLU8KSlfN2LBEeTSVwbHRg25iQmn1BY6vMSZaLTgMOqsrbjVotWt3BUAX6SmtbU0wZ2SN1v+6MdGrekGQhB9jr0HmvglgPQaA2AlRdz/ybe2LKqxuD2Fq6ez3wGRbPffXn0w8ecLyYRSprKnYAeIkm+CNF+/6ONuJPK3ATIflTDeZZenFmY0zmILcPR0VpxK9FeLV8OXnOnGb1XArlVZXwRR7gU4gFBq5OIFupWdBtBNfpaDXPf0/IwWrxkKflxXVNcXQXTLfhXAxIpGHIAzhttaMFtuCMBUzZqIZnInEbO/6iZMZzup+IKaBUEicM8E0TP2b8Dw3bZr05ccPMfgnAbNdsWmGNMIDTyOxQ9hHAGflpiLnAi7FzqplqvlhOtbylPJ0h6QEGhW3oxfX69IeSKIl0LJPQB8kJnvZeBZmeLJmz6buidAoxN87Q4P4CqJ1brAShueruurBGnP1JxqzaUcfpUJ0mwtanHR9LTHI6LPMuH6QtK41etkYpb9LQYu96j/NghTt5fH5NFuTavF5rVNZtf19/mW6H+dZPz7NQ1EL8ErEyRm2RYDSVUgGHx9wUzMUtXrTV5Pt50Dcr1+iXnYMY0jg4ijnmxE022fInIX+plTPZYVUiKIh/53m/Auw6ONbtmiHI63F0Smi5xUPDxd2IMNsXTbgUzuX/2QBHVWVkiJILpli2/fJyoCeK1jGucp6kiJl6oNkvZLgBVT2mnZoHfe2WfFRfu/I+WogYSi1pL9CEWRUjLM67TrqayQNEGi1qL9CBHV5pa/cUxjqlegZfSiafvzRPiVamo7MU/LpxI/l/HRaDLN1pIWlzsfA9HuPuauVFYoen3bvogU99WY9u065LZvV9XKUaVDalQ6qDYcritOd64UP0S0ggFxenIlMf7sNK15HK0fL0t1S2mCxCw7xcBcWcAIuD9vGr7LZcr46+5DeJtSijvzA04qcbSM/UaUGX79orERTXsARD66bG2/rJA+z94bjC+VfoAP+8B5I4D7CXjcRXGh7JkZGX/SBFF9vGLSPq9aXVAm4L5kxPOzS+5tBMRl7RBrk/Kp8bWYJiM7RV9yzdcv2t2NRO4BMMmrod7KCnUXD58WQNnXXsNi0P+R5lrO9MQjXuPerCdHkPnPDdKLw9fJ9vir5N1jSwBic7MHsUbPSIMSvqz3C9Wwua/FBmmD7gD4s/0K9y1QKiukp3Pi4NyFIK5IHS4C38aspZ1U/C9eY5ciiJ62DwehzzPQPZ1X+u6xpX+V89hMuLeQNL7gFbxG0RuZfmWoqw253c/pRFFWKNCMCBXwCQt22aFp1rJpY99TUROyUgSJWvblBMiWzV/imIaHE32qofcur1haNO+YRnMwnuvciniK6NzlDhCdUJMzJTytaR0nrm7d+z8q8UsRRLdssd8gV4afcI2TrF55fdWvbS7hgJ5FH1QAbDTZAI7wVg8yohXkuoflU4nXZIOQIkjMskXelNQXKbeIw9pnGn+SDaAccrplvwtgBxnbDD6mYCZ85SLJ+KknmTK1jqgcRNx5iJOaKPVeIkUQPZ19Rrb1F6O4f5Cf2bygplu2uI1KVTVh8CkFMyE+EYdDAQE9nZ2m7snsAAAKMUlEQVQHIj/n3BW8lUG0E2OcWcby/izLEmQJSPSw6H8QuXtUu+CYnrFfA0Pq+z0TzELSyPQ/s1CiJwJ6OnsdiALJr6s8uuw4Kzbuhsv2EXsofQ5ZgqwDkVTtp53e22Gn5eePEY84VRu6ZT8N4BMyATDh4kLS+LGMbCizLQK6lb0CIF/FIKqFKzFuzaeMUxuRIGIvRK4bbLgX4vv61K3s9wH6tm9Dmwz8C8AjbhG/okjR0YjyO767kyN+8e6O63WXOcbFiK414ViwKGHrpw6xsMpXOWaiT4LL3kFq6hEratm27I46MX01n4rfEtDiNqSZ5rltCVdzF/uZvNhcdkm7QTX7IpppO0Zj92ze1PDU2yB82UkaoqHrNkOWIDX2kp7NS5cgYjrKScUf8oZsqCUQUE1D2hI1r8ToibxPojzrNL9wCKZOFQmRWw0pgtTgZ16WvXQ1Fx9bPcN4XlY+lNsageafLBrmDouIFgyDVbERfeoLpnGJqt725PWMfQMYZ6na7OvYsBRBammjMJaxT2OG/COT5Oc+VcAbRT6Wyc1gZvWiDWU4RLcZc91qmwa4amWNGCuK5B68xmxZ0uMO1/9S1lKqiW7Z4llSpE9LDWfFhiH9feqTMtSgQrplPwDgKMXpl/2cUGzu4uNZ0+5WiaurO1e6YBqiB8z7Q+4OUiPJis3zl+3mFjtEqX7JnuO00DHjPnpoqMBff7Ij07l4kdhWnFnZybE5nmgm9wNiVnmEW+ms2DBmyz+YUgRBjaS7K5cjYpzvpIxrFBc4FO9GIGblZjJ4jgIgzzqmIbU/pWBzu6K6Zct/8i81K9KOKZjj3089kiOIhy8VlU557757PAdA+pioS51j25MTlwW1GI1mR/Xxigmn+in55AXfaMY+hbh0JFtuEF3nJOPnbhaWJshAPnIrJqN89wD90THjFWvwI7c6tSWlW7boYSj7B0m6e1fQKCgS+RXHNMSZ+NKQJohqGnm39QVO0jg76An3tNfdsFNtL4O1c53U+OvKHVu92h9uvT4ugo3y/QsZX3dSxo3VwCOazrYS0Txp30x7inZ+SgQRwlErdw+BFU/gaWc45vibpYNTFNTn2LugCWsU1d6IcNOkVamxbynqheLdCIiNOWL3fmlANHzYmW6IYucVHyPS2Y9oRFs1et1eEFsegZC+g5QeY+Zlp8Al0UNPaZDrnpCf0SIO/wc6vJbMZMbFhVSYoOhnMZQeaQkrnKQhdfzAT0zb041ZtigTNFLOPp/hmInSH3UlggiFmJW9lUFfkXP0gRQTXV5IxoNKaEPUsr9BgHoWLmGRNrg4afWZE9aqziGU/wABPWP/FAzZgoBVe//YHLHKewgD3yyYxk88EaRUmYL4KY8Xi+/i1SOutz+tRWgmwJ7ORtd7uX6P66KspmfsG8E4Q0YxyLrMMv56k4la2TkEcd1IjZ86pnGBJ4KUHrU85rtsEZpa+4MF9h7owCcBHC59Nr4XHJjxfGHkC5N6S0qTgi0Ueh8BlQTFgfBHSWXPhphvzacSpXMiyo9YQmmvm5fu8PZ7nY+BSxetr9FbAx2NuNkFtRC7Exi0v2zqen+BUKTpE/nWsc/2Jxf+vn8EdCv3iGytLAZ9rmDGH+zfavkkuovVibSY/gfzI04qIf4YeyOIUGye/+purjv4BTCP7t9j9SVc4Lh207iv+pHURwR6Ons3iKQKwBHh9HzSqGo/Q6UkVuZ7nFSi9Ajv6Q6yeYlj6exEJqrKpzuVy2wg3OJV4q0F2ZiVzTBoukysQX+gkfHZU0YlL4vA8/JmotQDxxdBhAE9/drBoCavL+1e5qqqU/UvKKoB14K8nrEvBeO7crHyXY6Z8N3PUs5X71K6lf0tQHKtO7ZIxfdNkBJJ5th7oIlfkj7F52emCrq9pS8rqIei20EgarVNJ7hS1WAYyBVMw6gmoLpli3MeUpV5GFqyYI4v7bwHQpDSxC99ZXBs1JCbmHBKNYEo+WZ+B6BzqpXaUPX5VyAA5Q65gzDGOav/OlTlCH1E5rW9NG5aKmubiE7IJ+Olje3gCNLtXbeyVwJ0oWwwgcsRPeqCLwrLiQaO7FYGY+llE5k6VN4/pzqm8ZvyRtW79ajV9hWCK904lhHZv2COe7ksBCk9cmXsqWCcL116JxjU3uxqG3a1Yxo/DcZcaKU/BFQq6QP4mWMaymfF+4tB5veKR8aXO0ljzGa7gd9B3g/4zjsj0dUHnE/MF4BQ1k/BYqeW3aar22eMe10GsFAmGASi6exsIiqlZMiMatRt3pR5gcdl4is9nQO3FEzjq+UnSLeH4dbicRq082nTOXHRdy6osZGBh1iLXN0+fdwTQRkN7cgjMGLekv01t/iivAbd7ZhxuS9J8ka3K6lbubtU0pJ67tmU7w7SM+xLXxkcHb3jFCKeAubJAPZRx4CWMfPvNPDjG5uGPrG2dXdRbiYcVURAt3JPASw6R8mNMlYz6RmAnrbPBOFncoGV3sg3NjVF9lx51rgVFbuD9BWcns6NYXL3I2AUg0aJf4l5NG+6y6wjwgpmXsHU9JZGvMLt7MgVZk78h/RkQ8GKIKCU9v7BVXe+kyxvLYBSg1AXooCH9GDgvoJpiHKm74/K3UGkwwwFawmBoXPskYOb6K8A76USdznfR0ZncqM6mN+/C8jG5WqR/+n5uB4SRBa9UK5PBKJW9iICXaEMEbsnOamWXyvrbUchlsnOYiblo9R9peSHBAlydRrU1ugrX9q5Y+edRJa0eq9zdi/TmobMX926l1LvwJ5Ql6radG5oBWmXeliGN103cnBvX0FDgnhAM1TZFoFo2jaJkPaIzZtgd4EXomxBDLHHIlthpWeYF/S1fxYSxOOKhmrbIqBncn/s/kLpFZ4CgD8S4f7+0uObLftYV/QHoVLvTO+dipkfcFKJo/sKOCSI16UM9bZBYETG/qjm8kLZbmT9Q8gOgxwC8kKWgRiB9cCSYgmOi86Pba94YEiQ/lcplFBAQHnvQcF20KIyX9JCggSNemhPVJyZ23WUOjXAoejzvWPLuEOCDPBVrNXwdCv3O4D7fLav7rzky86GBKnuStW195hln8pAVc+ibwsw3+CYCen+7iFB6voSrf7kdMv+BAg3y/atL2vEHjoahwQp64qExgUCI9NLdy1SRxogT8X+/KIo6qERcLGTMtTL5vp1HuqHCMgiEE1nTybgHBDJ9bCXNdyXHGERMVn55uctr8UCwzuI30UI9ZUR0NPZc7CJKFJFFJQdAG8ww4rsUEz7rcEcEsQD+qGKfwRKGbcunQziY2QrNPbnlQBRGPAPGjfdFVRri5Ag/aEe/r7sCJSqjrhNx2+q1MiHKjkkehQu307aDg/lk2NEx6tAR0iQQOEMjflG4NJXBuuxIaM0DaNc2nSQrvsQnSjBI3p8rNSYV7ouVjr5DSvL3cI7JIjvFQ0N1DMCIUHqeXXDuflGICSIbwhDA/WMQEiQel7dcG6+EQgJ4hvC0EA9I/D/5cEsqppLEXwAAAAASUVORK5CYII=;" parent="1" vertex="1">
          <mxGeometry x="-114" y="725" width="47" height="47" as="geometry" />
        </mxCell>
      </root>
    </mxGraphModel>
  </diagram>
</mxfile>
